#N canvas 759 23 1161 825 12;
#X declare -lib timbreID/timbreIDLib;
#N canvas 704 403 960 491 preenProcess 0;
#X obj 174 227 noteout 1;
#X obj 142 25 inlet sendNote;
#X obj 142 78 t b b;
#X obj 142 281 outlet;
#X obj 173 199 makenote 80 250;
#X obj 220 136 r \$0-basenote;
#X obj 174 163 f;
#X msg 186 102 40;
#X obj 311 19 inlet test;
#X connect 1 0 2 0;
#X connect 2 0 3 0;
#X connect 2 1 6 0;
#X connect 4 0 0 0;
#X connect 4 1 0 1;
#X connect 5 0 6 1;
#X connect 6 0 4 0;
#X connect 7 0 6 0;
#X connect 8 0 6 0;
#X restore 506 579 pd preenProcess;
#N canvas 0 22 450 300 (subpatch) 0;
#X array \$0-sampleSource 40872 float 0;
#X coords 0 1 40871 -1 200 80 1 0 0;
#X restore 701 230 graph;
#X obj 470 15 bng 25 250 50 0 empty empty set_source 28 13 0 10 -262130
-1 -1;
#N canvas 0 50 450 300 (subpatch) 0;
#X array \$0-bfcc-graph 50 float 0;
#X coords 0 1 49 -1 200 140 1 0 0;
#X restore 38 284 graph;
#X obj 188 455 hsl 800 25 0 128000 0 0 \$0-scrub-bar empty Scrub-bar
-2 -8 0 12 -162280 -257985 -1 0 1;
#N canvas 0 50 450 300 (subpatch) 0;
#X array \$0-waveform 1024 float 0;
#X coords 0 1 1023 -1 200 140 1 0 0;
#X restore 260 284 graph;
#N canvas 722 238 304 333 waveform 0;
#X obj 46 61 inlet;
#X obj 46 82 t f f;
#X obj 91 131 + 1023;
#X obj 46 164 pack f f \$0;
#X obj 46 241 tabletool \$0-waveform;
#X msg 46 200 copy_range 0 \$3-sampleSource \$1 \$2;
#X connect 0 0 1 0;
#X connect 1 0 3 0;
#X connect 1 1 2 0;
#X connect 2 0 3 1;
#X connect 3 0 5 0;
#X connect 5 0 4 0;
#X restore 814 790 pd waveform;
#X obj 814 771 r \$0-scrub-bar;
#N canvas 0 22 450 300 (subpatch) 0;
#X array \$0-sampleTest 40872 float 0;
#X coords 0 1 40871 -1 200 80 1 0 0;
#X restore 704 342 graph;
#N canvas 0 22 450 300 (subpatch) 0;
#X array \$0-fdelta-graph 8 float 2;
#X coords 0 1.1 8 -1.1 200 140 1 0 0;
#X restore 482 284 graph;
#X obj 983 376 nbx 7 32 -1e+37 1e+37 0 0 empty empty score -48 17 0
14 -4034 -257985 -99865 1.05727 256;
#X obj 535 792 declare -lib timbreID/timbreIDLib;
#X obj 608 661 bng 40 250 50 0 \$0-analyse \$0-analyse-trig analyse
46 20 0 10 -4032 -1 -1;
#N canvas 589 316 598 452 autoscrub 0;
#X obj 127 363 s \$0-scrub-bar;
#X obj 143 282 pack 0 0;
#X msg 121 128 0;
#X obj 76 90 t b b;
#X obj 83 36 r \$0-analyse;
#X obj 131 323 line 0 1;
#X obj 87 218 f;
#X obj 105 166 r \$0-sampleSourceLen;
#X obj 105 193 - 4;
#X obj 346 155 r \$0-sampleSourceMilli;
#X connect 1 0 5 0;
#X connect 2 0 5 0;
#X connect 3 0 6 0;
#X connect 3 1 2 0;
#X connect 4 0 3 0;
#X connect 5 0 0 0;
#X connect 6 0 1 0;
#X connect 7 0 8 0;
#X connect 8 0 6 1;
#X connect 9 0 1 1;
#X restore 590 708 pd autoscrub;
#X obj 986 259 hsl 64 19 0.02 0.5 1 0 empty \$0-threshold-init threshold
70 9 0 10 -262144 -1 -1 4943 1;
#N canvas 421 149 817 780 analyser 0;
#X obj 503 42 inlet threshold;
#X obj 364 649 outlet score;
#X msg 308 72 analyze \$1 1024;
#X obj 308 42 r \$0-scrub-bar;
#N canvas 0 81 450 300 plotting 0;
#X obj 61 195 list prepend 0;
#X obj 61 91 t l l;
#X obj 185 138 list length;
#X obj 185 160 change;
#X obj 185 182 pack f \$0;
#X msg 185 203 \; \$2-bfcc-graph resize \$1 \;;
#X obj 61 216 s \$0-bfcc-graph;
#X obj 61 51 inlet;
#X connect 0 0 6 0;
#X connect 1 0 0 0;
#X connect 1 1 2 0;
#X connect 2 0 3 0;
#X connect 3 0 4 0;
#X connect 4 0 5 0;
#X connect 7 0 1 0;
#X restore 192 451 pd plotting;
#X obj 267 325 bfcc \$0-sampleSource 0.5;
#X obj 305 138 waveSlope \$0-sampleSource;
#X obj 305 168 abs;
#X obj 305 222 change;
#X obj 266 244 spigot;
#X obj 477 327 bfcc \$0-sampleTest 0.5;
#X obj 266 274 t a a;
#X obj 320 392 list split 8;
#N canvas 648 548 450 300 plot-delta 0;
#X obj 37 37 inlet;
#X obj 37 194 list prepend 0;
#X obj 160 115 list length;
#X obj 160 136 change;
#X obj 160 157 pack f \$0;
#X obj 37 77 t l l;
#X msg 160 179 \; \$2-fdelta-graph resize \$1 \;;
#X obj 37 217 s \$0-fdelta-graph;
#X connect 0 0 5 0;
#X connect 1 0 7 0;
#X connect 2 0 3 0;
#X connect 3 0 4 0;
#X connect 4 0 6 0;
#X connect 5 0 1 0;
#X connect 5 1 2 0;
#X restore 388 499 pd plot-delta;
#X obj 364 565 list-accum;
#X obj 485 388 list split 8;
#X obj 241 42 bng 25 250 50 0 empty empty empty 28 13 0 10 -262130
-1 -1;
#X obj 364 451 featureDelta 8;
#X msg 67 274 direction pos;
#X obj 67 244 loadbang;
#X obj 305 198 > 0.2;
#X obj 576 647 outlet nbpoints;
#X obj 576 597 i;
#X obj 601 597 + 1;
#X obj 526 547 t b;
#X msg 576 547 1;
#X obj 265 111 t a a a;
#X obj 640 478 sel 0;
#X obj 600 451 unpack s 0 0;
#X obj 602 141 loadbang;
#X obj 601 201 s \$0-threshold-init;
#X msg 603 168 0.25;
#X obj 364 621 tID_std;
#X obj 364 593 cyclone/thresh 200;
#X connect 0 0 20 1;
#X connect 2 0 26 0;
#X connect 3 0 2 0;
#X connect 5 0 4 0;
#X connect 5 0 12 0;
#X connect 6 0 7 0;
#X connect 7 0 20 0;
#X connect 8 0 9 1;
#X connect 9 0 11 0;
#X connect 10 0 15 0;
#X connect 11 0 5 0;
#X connect 11 1 10 0;
#X connect 12 0 17 0;
#X connect 14 0 24 0;
#X connect 14 0 33 0;
#X connect 15 0 17 1;
#X connect 16 0 26 0;
#X connect 17 0 13 0;
#X connect 17 0 14 0;
#X connect 18 0 17 0;
#X connect 19 0 18 0;
#X connect 20 0 8 0;
#X connect 22 0 23 0;
#X connect 22 0 21 0;
#X connect 23 0 22 1;
#X connect 24 0 22 0;
#X connect 25 0 22 0;
#X connect 26 0 9 0;
#X connect 26 1 6 0;
#X connect 26 2 28 0;
#X connect 27 0 25 0;
#X connect 28 1 27 0;
#X connect 29 0 31 0;
#X connect 31 0 30 0;
#X connect 32 0 1 0;
#X connect 33 0 32 0;
#X restore 983 310 pd analyser;
#X obj 983 285 nbx 5 18 -1e+37 1e+37 0 0 empty empty empty 0 -8 0 10
-262144 -1 -1 0.25 256;
#N canvas 328 23 945 662 setSource 0;
#X obj 68 148 soundfiler;
#X obj 68 58 openpanel;
#X obj 438 276 f \$0;
#X obj 68 88 pack s \$0;
#X msg 68 118 read -resize \$1 \$2-sampleSource;
#X obj 438 246 t b;
#X msg 438 306 \; \$1-sampleSource normalize \;;
#X obj 36 246 s \$0-sampleSourceLen;
#X obj 68 28 inlet;
#X obj 157 407 samplerate~;
#X obj 139 460 /;
#X obj 157 377 loadbang;
#X obj 133 377 bng 15 250 50 0 empty empty empty 17 7 0 10 -262144
-1 -1;
#X obj 139 520 s \$0-sampleSourceMilli;
#X obj 139 490 * 1000;
#X obj 280 28 inlet filepath;
#X obj 745 291 readsf~;
#X obj 745 159 unpack s;
#X obj 745 225 t b a;
#X msg 745 258 1;
#X obj 719 378 dac~;
#X obj 745 192 prepend open;
#X floatatom 803 421 10 0 0 1 ms - -;
#X obj 791 388 attackTime~ 2048;
#N canvas 713 346 570 417 onsets 0;
#X obj 56 53 inlet~;
#X obj 176 347 outlet;
#X obj 3 4 cnv 10 400 10 empty empty empty 20 12 0 14 -233017 -66577
0;
#X obj 3 4 cnv 10 10 400 empty empty empty 20 12 0 14 -233017 -66577
0;
#X obj 208 193 bng 15 250 50 0 empty empty empty 17 7 0 10 -262144
-1 -1;
#X obj 259 96 loadbang;
#X obj 56 335 outlet~;
#X obj 176 155 bark~ 4096 1024 0.5;
#X msg 259 119 minvel 50 \, debounce 200 \, thresh -1 20;
#X connect 0 0 6 0;
#X connect 0 0 7 0;
#X connect 5 0 8 0;
#X connect 7 0 4 0;
#X connect 7 0 1 0;
#X connect 8 0 7 0;
#X restore 791 345 pd onsets;
#X obj 791 454 s \$0-attack-time;
#X obj 213 245 pack f \$0;
#X msg 213 273 \; \$2-sampleTest resize \$1;
#X obj 719 344 *~ 0.85;
#X connect 0 0 7 0;
#X connect 0 0 10 0;
#X connect 0 0 26 0;
#X connect 0 1 5 0;
#X connect 1 0 3 0;
#X connect 2 0 6 0;
#X connect 3 0 4 0;
#X connect 3 0 17 0;
#X connect 4 0 0 0;
#X connect 5 0 2 0;
#X connect 8 0 1 0;
#X connect 9 0 10 1;
#X connect 10 0 14 0;
#X connect 11 0 9 0;
#X connect 12 0 9 0;
#X connect 14 0 13 0;
#X connect 15 0 3 0;
#X connect 16 0 24 0;
#X connect 16 0 28 0;
#X connect 17 0 21 0;
#X connect 18 0 19 0;
#X connect 18 1 16 0;
#X connect 19 0 16 0;
#X connect 21 0 18 0;
#X connect 23 0 22 0;
#X connect 23 0 25 0;
#X connect 24 0 23 0;
#X connect 24 1 23 0;
#X connect 26 0 27 0;
#X connect 28 0 20 0;
#X connect 28 0 20 1;
#X restore 470 40 pd setSource;
#N canvas 388 114 675 644 audiocapture 0;
#X obj 252 14 inlet;
#X obj 73 216 adc~ 1;
#X obj 73 243 hip~ 5;
#X msg 252 201 bang;
#X obj 180 414 line~;
#X obj 162 441 *~;
#X msg 355 338 0 10;
#X msg 264 311 0 \, 1 5;
#X obj 162 468 tabwrite~ \$0-sampleTest;
#X obj 394 439 f \$0;
#X msg 394 466 \; \$1-sampleTest normalize \;;
#X obj 323 311 t b b;
#X obj 291 599 outlet;
#X msg 252 551 1;
#X msg 323 551 0;
#X obj 408 405 bng 15 250 50 0 empty empty empty 17 7 0 10 -262144
-1 -1;
#X obj 323 256 del 200;
#X obj 369 225 r \$0-sampleSourceMilli;
#X obj 422 272 nbx 12 14 0 1e+37 0 0 empty empty empty 0 -8 0 10 -262144
-1 -1 851.5 256;
#X obj 476 599 outlet done;
#X connect 0 0 3 0;
#X connect 1 0 2 0;
#X connect 2 0 5 0;
#X connect 3 0 7 0;
#X connect 3 0 8 0;
#X connect 3 0 13 0;
#X connect 3 0 16 0;
#X connect 4 0 5 1;
#X connect 5 0 8 0;
#X connect 6 0 4 0;
#X connect 7 0 4 0;
#X connect 9 0 10 0;
#X connect 11 0 9 0;
#X connect 11 0 14 0;
#X connect 11 0 19 0;
#X connect 11 1 6 0;
#X connect 13 0 12 0;
#X connect 14 0 12 0;
#X connect 15 0 9 0;
#X connect 16 0 11 0;
#X connect 17 0 16 1;
#X connect 17 0 18 0;
#X restore 506 635 pd audiocapture;
#X obj 506 604 bng 25 250 50 0 empty \$0-start-rec-trig start_record
28 13 0 10 -262130 -1 -1;
#X obj 506 660 tgl 15 0 empty empty rec_on 17 7 0 10 -258113 -257985
-1 0 1;
#X obj 1057 337 nbx 3 32 0 1e+37 0 0 empty empty points -60 17 0 14
-204786 -13381 -99865 11 256;
#X obj 407 762 bng 25 250 50 0 empty empty set_test 28 13 0 10 -262130
-1 -1;
#N canvas 0 23 450 300 setTestSample 0;
#X obj 40 124 soundfiler;
#X obj 39 86 openpanel;
#X obj 139 124 f \$0;
#X obj 106 86 pack s \$0;
#X obj 114 124 t b;
#X msg 40 105 read -resize \$1 \$2-sampleTest;
#X msg 169 124 \; \$1-sampleTest normalize \;;
#X obj 56 30 inlet;
#X connect 0 1 4 0;
#X connect 1 0 3 0;
#X connect 2 0 6 0;
#X connect 3 0 5 0;
#X connect 4 0 2 0;
#X connect 5 0 0 0;
#X connect 7 0 1 0;
#X restore 407 793 pd setTestSample;
#X msg 568 21 /Volumes/FAT/samples/tubeslap2.wav;
#N canvas 534 157 1083 822 preenRandomizer 0;
#N canvas 93 540 640 400 env_attack 0;
#X msg 74 256 \$1 6;
#X obj 27 20 inlet val;
#X obj 168 48 - 1;
#X obj 168 75 * 8;
#X obj 168 102 + 68;
#X obj 27 300 ctlout;
#X msg 114 256 \$1 98;
#X msg 156 256 \$1 99;
#X obj 27 145 pack 0 0;
#X obj 27 195 unpack 0 0 0 0;
#X msg 26 256 \$1 38;
#X obj 26 228 % 127;
#X msg 27 170 \$1 \$1 \$2 0;
#X obj 68 228 / 128;
#X obj 168 21 r opnum;
#X msg 366 256 \$1 6;
#X obj 460 49 - 1;
#X obj 460 76 * 8;
#X obj 319 301 ctlout;
#X msg 406 256 \$1 98;
#X msg 448 256 \$1 99;
#X obj 319 146 pack 0 0;
#X obj 319 196 unpack 0 0 0 0;
#X msg 318 256 \$1 38;
#X obj 318 229 % 127;
#X msg 319 171 \$1 \$1 \$2 0;
#X obj 360 229 / 128;
#X obj 460 22 r opnum;
#X obj 460 102 + 69;
#X obj 319 21 inlet level;
#X obj 27 50 / 1600;
#X obj 27 82 *;
#X obj 27 114 * 1600;
#X connect 0 0 5 0;
#X connect 1 0 30 0;
#X connect 2 0 3 0;
#X connect 3 0 4 0;
#X connect 4 0 8 1;
#X connect 6 0 5 0;
#X connect 7 0 5 0;
#X connect 8 0 12 0;
#X connect 9 0 11 0;
#X connect 9 1 13 0;
#X connect 9 2 6 0;
#X connect 9 3 7 0;
#X connect 10 0 5 0;
#X connect 11 0 10 0;
#X connect 12 0 9 0;
#X connect 13 0 0 0;
#X connect 14 0 2 0;
#X connect 15 0 18 0;
#X connect 16 0 17 0;
#X connect 17 0 28 0;
#X connect 19 0 18 0;
#X connect 20 0 18 0;
#X connect 21 0 25 0;
#X connect 22 0 24 0;
#X connect 22 1 26 0;
#X connect 22 2 19 0;
#X connect 22 3 20 0;
#X connect 23 0 18 0;
#X connect 24 0 23 0;
#X connect 25 0 22 0;
#X connect 26 0 15 0;
#X connect 27 0 16 0;
#X connect 28 0 21 1;
#X connect 29 0 21 0;
#X connect 30 0 31 0;
#X connect 30 0 31 1;
#X connect 31 0 32 0;
#X connect 32 0 8 0;
#X restore 176 275 pd env_attack;
#X floatatom 176 252 5 1 1600 0 attack - -;
#X floatatom 175 361 5 1 1600 0 decay - -;
#N canvas 1280 565 640 400 env_decay 0;
#X msg 99 258 \$1 6;
#X obj 52 22 inlet val;
#X obj 193 50 - 1;
#X obj 193 77 * 8;
#X obj 52 302 ctlout;
#X msg 139 258 \$1 98;
#X msg 181 258 \$1 99;
#X obj 52 147 pack 0 0;
#X obj 52 197 unpack 0 0 0 0;
#X msg 51 258 \$1 38;
#X obj 51 230 % 127;
#X msg 52 172 \$1 \$1 \$2 0;
#X obj 93 230 / 128;
#X obj 193 104 + 70;
#X obj 193 23 r opnum;
#X msg 385 261 \$1 6;
#X obj 479 53 - 1;
#X obj 479 80 * 8;
#X obj 338 305 ctlout;
#X msg 425 261 \$1 98;
#X msg 467 261 \$1 99;
#X obj 338 150 pack 0 0;
#X obj 338 200 unpack 0 0 0 0;
#X msg 337 261 \$1 38;
#X obj 337 233 % 127;
#X msg 338 175 \$1 \$1 \$2 0;
#X obj 379 233 / 128;
#X obj 479 26 r opnum;
#X obj 479 107 + 71;
#X obj 338 25 inlet level;
#X connect 0 0 4 0;
#X connect 1 0 7 0;
#X connect 2 0 3 0;
#X connect 3 0 13 0;
#X connect 5 0 4 0;
#X connect 6 0 4 0;
#X connect 7 0 11 0;
#X connect 8 0 10 0;
#X connect 8 1 12 0;
#X connect 8 2 5 0;
#X connect 8 3 6 0;
#X connect 9 0 4 0;
#X connect 10 0 9 0;
#X connect 11 0 8 0;
#X connect 12 0 0 0;
#X connect 13 0 7 1;
#X connect 14 0 2 0;
#X connect 15 0 18 0;
#X connect 16 0 17 0;
#X connect 17 0 28 0;
#X connect 19 0 18 0;
#X connect 20 0 18 0;
#X connect 21 0 25 0;
#X connect 22 0 24 0;
#X connect 22 1 26 0;
#X connect 22 2 19 0;
#X connect 22 3 20 0;
#X connect 23 0 18 0;
#X connect 24 0 23 0;
#X connect 25 0 22 0;
#X connect 26 0 15 0;
#X connect 27 0 16 0;
#X connect 28 0 21 1;
#X connect 29 0 21 0;
#X restore 175 382 pd env_decay;
#X floatatom 175 469 5 1 1600 0 sustain - -;
#N canvas 1280 565 640 400 env_sustain 0;
#X msg 83 258 \$1 6;
#X obj 36 22 inlet val;
#X obj 177 50 - 1;
#X obj 177 77 * 8;
#X obj 36 302 ctlout;
#X msg 123 258 \$1 98;
#X msg 165 258 \$1 99;
#X obj 36 147 pack 0 0;
#X obj 36 197 unpack 0 0 0 0;
#X msg 35 258 \$1 38;
#X obj 35 230 % 127;
#X msg 36 172 \$1 \$1 \$2 0;
#X obj 77 230 / 128;
#X obj 177 104 + 72;
#X obj 177 23 r opnum;
#X msg 385 258 \$1 6;
#X obj 479 50 - 1;
#X obj 479 77 * 8;
#X obj 338 302 ctlout;
#X msg 425 258 \$1 98;
#X msg 467 258 \$1 99;
#X obj 338 147 pack 0 0;
#X obj 338 197 unpack 0 0 0 0;
#X msg 337 258 \$1 38;
#X obj 337 230 % 127;
#X msg 338 172 \$1 \$1 \$2 0;
#X obj 379 230 / 128;
#X obj 479 23 r opnum;
#X obj 338 22 inlet level;
#X obj 479 104 + 73;
#X connect 0 0 4 0;
#X connect 1 0 7 0;
#X connect 2 0 3 0;
#X connect 3 0 13 0;
#X connect 5 0 4 0;
#X connect 6 0 4 0;
#X connect 7 0 11 0;
#X connect 8 0 10 0;
#X connect 8 1 12 0;
#X connect 8 2 5 0;
#X connect 8 3 6 0;
#X connect 9 0 4 0;
#X connect 10 0 9 0;
#X connect 11 0 8 0;
#X connect 12 0 0 0;
#X connect 13 0 7 1;
#X connect 14 0 2 0;
#X connect 15 0 18 0;
#X connect 16 0 17 0;
#X connect 17 0 29 0;
#X connect 19 0 18 0;
#X connect 20 0 18 0;
#X connect 21 0 25 0;
#X connect 22 0 24 0;
#X connect 22 1 26 0;
#X connect 22 2 19 0;
#X connect 22 3 20 0;
#X connect 23 0 18 0;
#X connect 24 0 23 0;
#X connect 25 0 22 0;
#X connect 26 0 15 0;
#X connect 27 0 16 0;
#X connect 28 0 21 0;
#X connect 29 0 21 1;
#X restore 175 492 pd env_sustain;
#X floatatom 174 630 5 1 1600 0 release - -;
#N canvas 1280 565 640 400 env_release 0;
#X msg 77 270 \$1 6;
#X obj 30 34 inlet val;
#X obj 171 62 - 1;
#X obj 171 89 * 8;
#X obj 30 314 ctlout;
#X msg 117 270 \$1 98;
#X msg 159 270 \$1 99;
#X obj 30 159 pack 0 0;
#X obj 30 209 unpack 0 0 0 0;
#X msg 29 270 \$1 38;
#X obj 29 242 % 127;
#X msg 30 184 \$1 \$1 \$2 0;
#X obj 71 242 / 128;
#X obj 171 116 + 74;
#X obj 171 35 r opnum;
#X msg 410 268 \$1 6;
#X obj 504 60 - 1;
#X obj 504 87 * 8;
#X obj 363 312 ctlout;
#X msg 450 268 \$1 98;
#X msg 492 268 \$1 99;
#X obj 363 157 pack 0 0;
#X obj 363 207 unpack 0 0 0 0;
#X msg 362 268 \$1 38;
#X obj 362 240 % 127;
#X msg 363 182 \$1 \$1 \$2 0;
#X obj 404 240 / 128;
#X obj 504 33 r opnum;
#X obj 363 32 inlet level;
#X obj 504 114 + 75;
#X connect 0 0 4 0;
#X connect 1 0 7 0;
#X connect 2 0 3 0;
#X connect 3 0 13 0;
#X connect 5 0 4 0;
#X connect 6 0 4 0;
#X connect 7 0 11 0;
#X connect 8 0 10 0;
#X connect 8 1 12 0;
#X connect 8 2 5 0;
#X connect 8 3 6 0;
#X connect 9 0 4 0;
#X connect 10 0 9 0;
#X connect 11 0 8 0;
#X connect 12 0 0 0;
#X connect 13 0 7 1;
#X connect 14 0 2 0;
#X connect 15 0 18 0;
#X connect 16 0 17 0;
#X connect 17 0 29 0;
#X connect 19 0 18 0;
#X connect 20 0 18 0;
#X connect 21 0 25 0;
#X connect 22 0 24 0;
#X connect 22 1 26 0;
#X connect 22 2 19 0;
#X connect 22 3 20 0;
#X connect 23 0 18 0;
#X connect 24 0 23 0;
#X connect 25 0 22 0;
#X connect 26 0 15 0;
#X connect 27 0 16 0;
#X connect 28 0 21 0;
#X connect 29 0 21 1;
#X restore 174 653 pd env_release;
#X floatatom 274 250 5 0 100 1 level - -;
#X floatatom 274 359 5 0 100 1 level - -;
#X floatatom 273 467 5 0 100 1 level - -;
#X floatatom 272 629 5 0 100 1 level - -;
#X obj 661 138 nbx 3 20 1 6 0 0 opnum empty op_num 0 -8 0 10 -262130
-1 -1 6 256;
#N canvas 709 235 473 418 oscFreq 0;
#X msg 74 256 \$1 6;
#X obj 27 20 inlet val;
#X obj 168 48 - 1;
#X obj 27 300 ctlout;
#X msg 114 256 \$1 98;
#X msg 156 256 \$1 99;
#X obj 27 145 pack 0 0;
#X obj 27 195 unpack 0 0 0 0;
#X msg 26 256 \$1 38;
#X obj 26 228 % 127;
#X msg 27 170 \$1 \$1 \$2 0;
#X obj 68 228 / 128;
#X obj 168 21 r opnum;
#X obj 168 101 + 46;
#X obj 168 74 * 4;
#X connect 0 0 3 0;
#X connect 1 0 6 0;
#X connect 2 0 14 0;
#X connect 4 0 3 0;
#X connect 5 0 3 0;
#X connect 6 0 10 0;
#X connect 7 0 9 0;
#X connect 7 1 11 0;
#X connect 7 2 4 0;
#X connect 7 3 5 0;
#X connect 8 0 3 0;
#X connect 9 0 8 0;
#X connect 10 0 7 0;
#X connect 11 0 0 0;
#X connect 12 0 2 0;
#X connect 13 0 6 1;
#X connect 14 0 13 0;
#X restore 488 408 pd oscFreq;
#X floatatom 488 387 5 1 1600 0 freq - -;
#X floatatom 489 519 5 1 1600 0 fine_tune - -;
#N canvas 709 235 473 418 oscFineTune 0;
#X msg 74 256 \$1 6;
#X obj 27 20 inlet val;
#X obj 168 48 - 1;
#X obj 27 300 ctlout;
#X msg 114 256 \$1 98;
#X msg 156 256 \$1 99;
#X obj 27 145 pack 0 0;
#X obj 27 195 unpack 0 0 0 0;
#X msg 26 256 \$1 38;
#X obj 26 228 % 127;
#X msg 27 170 \$1 \$1 \$2 0;
#X obj 68 228 / 128;
#X obj 168 21 r opnum;
#X obj 168 74 * 4;
#X obj 168 101 + 47;
#X connect 0 0 3 0;
#X connect 1 0 6 0;
#X connect 2 0 13 0;
#X connect 4 0 3 0;
#X connect 5 0 3 0;
#X connect 6 0 10 0;
#X connect 7 0 9 0;
#X connect 7 1 11 0;
#X connect 7 2 4 0;
#X connect 7 3 5 0;
#X connect 8 0 3 0;
#X connect 9 0 8 0;
#X connect 10 0 7 0;
#X connect 11 0 0 0;
#X connect 12 0 2 0;
#X connect 13 0 14 0;
#X connect 14 0 6 1;
#X restore 489 540 pd oscFineTune;
#X obj 444 74 uzi 6 1, f 11;
#X obj 444 13 inlet;
#X obj 444 44 t b;
#X obj 518 106 t b b f;
#X obj 488 365 random 1600;
#X obj 489 497 random 1600;
#X obj 274 228 random 100;
#X obj 175 337 random 1600;
#X obj 16 116 r \$0-rnd-trig;
#X obj 175 445 random 1600;
#X obj 273 445 random 100;
#X obj 174 606 random 1600;
#X obj 488 343 r \$0-rnd-trig;
#X obj 489 475 r \$0-rnd-trig;
#X obj 547 139 s \$0-rnd-trig;
#X floatatom 842 490 0 0 127 0 - - -;
#X obj 842 516 ctlout 80 1;
#X text 838 469 Carrier Op env Attacks;
#X floatatom 843 568 0 0 127 0 - - -;
#X text 839 547 Carrier Op env Releases;
#X obj 843 594 ctlout 81 1;
#X floatatom 840 332 0 0 127 0 - - -;
#X floatatom 841 410 0 0 127 0 - - -;
#X obj 840 358 ctlout 62 1;
#X obj 841 436 ctlout 63 1;
#X text 836 311 Modulator Op env Attacks;
#X text 837 389 Modulator Op env Releases;
#X obj 479 140 outlet;
#X obj 881 111 r \$0-attack-time;
#X floatatom 650 388 5 1 1600 0 IM - -;
#X obj 650 344 r \$0-rnd-trig;
#N canvas 709 235 473 418 oscIM 0;
#X msg 74 256 \$1 6;
#X obj 27 20 inlet val;
#X obj 168 48 - 1;
#X obj 27 300 ctlout;
#X msg 114 256 \$1 98;
#X msg 156 256 \$1 99;
#X obj 27 145 pack 0 0;
#X obj 27 195 unpack 0 0 0 0;
#X msg 26 256 \$1 38;
#X obj 26 228 % 127;
#X msg 27 170 \$1 \$1 \$2 0;
#X obj 68 228 / 128;
#X obj 168 21 r opnum;
#X obj 168 74 * 2;
#X obj 168 101 + 4;
#X connect 0 0 3 0;
#X connect 1 0 6 0;
#X connect 2 0 13 0;
#X connect 4 0 3 0;
#X connect 5 0 3 0;
#X connect 6 0 10 0;
#X connect 7 0 9 0;
#X connect 7 1 11 0;
#X connect 7 2 4 0;
#X connect 7 3 5 0;
#X connect 8 0 3 0;
#X connect 9 0 8 0;
#X connect 10 0 7 0;
#X connect 11 0 0 0;
#X connect 12 0 2 0;
#X connect 13 0 14 0;
#X connect 14 0 6 1;
#X restore 650 409 pd oscIM;
#X obj 650 366 random 100;
#X floatatom 647 515 5 1 1600 0 shape - -;
#X obj 647 471 r \$0-rnd-trig;
#N canvas 709 235 473 418 oscShape 0;
#X msg 74 256 \$1 6;
#X obj 27 20 inlet val;
#X obj 168 48 - 1;
#X obj 27 300 ctlout;
#X msg 114 256 \$1 98;
#X msg 156 256 \$1 99;
#X obj 27 145 pack 0 0;
#X obj 27 195 unpack 0 0 0 0;
#X msg 26 256 \$1 38;
#X obj 26 228 % 127;
#X msg 27 170 \$1 \$1 \$2 0;
#X obj 68 228 / 128;
#X obj 168 21 r opnum;
#X obj 168 101 + 44;
#X obj 168 74 * 4;
#X connect 0 0 3 0;
#X connect 1 0 6 0;
#X connect 2 0 14 0;
#X connect 4 0 3 0;
#X connect 5 0 3 0;
#X connect 6 0 10 0;
#X connect 7 0 9 0;
#X connect 7 1 11 0;
#X connect 7 2 4 0;
#X connect 7 3 5 0;
#X connect 8 0 3 0;
#X connect 9 0 8 0;
#X connect 10 0 7 0;
#X connect 11 0 0 0;
#X connect 12 0 2 0;
#X connect 13 0 6 1;
#X connect 14 0 13 0;
#X restore 647 536 pd oscShape;
#X obj 647 493 random 7;
#X obj 176 228 random 1600;
#X obj 274 337 expr 100 - $f1;
#X obj 880 142 r \$0-sampleSourceLen;
#X obj 248 580 expr 1600 - $f1;
#X obj 244 557 +;
#X obj 16 144 t b b b b;
#X obj 471 721 pack 0 0 0 0 0 0 0 0 0 0 0 0 0 0;
#X obj 471 750 thresh 100;
#X obj 471 778 s \$0-currentPreenSet;
#X obj 133 22 r \$0-currentPreenRead, f 25;
#X connect 1 0 0 0;
#X connect 1 0 60 2;
#X connect 2 0 3 0;
#X connect 2 0 60 4;
#X connect 4 0 5 0;
#X connect 4 0 60 6;
#X connect 6 0 7 0;
#X connect 6 0 60 8;
#X connect 8 0 0 1;
#X connect 8 0 55 0;
#X connect 8 0 60 3;
#X connect 9 0 3 1;
#X connect 9 0 60 5;
#X connect 10 0 5 1;
#X connect 10 0 60 7;
#X connect 11 0 7 1;
#X connect 14 0 13 0;
#X connect 14 0 60 10;
#X connect 15 0 16 0;
#X connect 15 0 60 12;
#X connect 17 2 20 0;
#X connect 18 0 19 0;
#X connect 19 0 17 0;
#X connect 20 0 44 0;
#X connect 20 0 60 0;
#X connect 20 1 31 0;
#X connect 20 2 12 0;
#X connect 20 2 60 1;
#X connect 21 0 14 0;
#X connect 22 0 15 0;
#X connect 23 0 8 0;
#X connect 24 0 2 0;
#X connect 24 0 58 0;
#X connect 25 0 59 0;
#X connect 26 0 4 0;
#X connect 27 0 10 0;
#X connect 28 0 6 0;
#X connect 29 0 21 0;
#X connect 30 0 22 0;
#X connect 32 0 33 0;
#X connect 35 0 37 0;
#X connect 38 0 40 0;
#X connect 39 0 41 0;
#X connect 46 0 48 0;
#X connect 46 0 60 11;
#X connect 47 0 49 0;
#X connect 49 0 46 0;
#X connect 50 0 52 0;
#X connect 51 0 53 0;
#X connect 53 0 50 0;
#X connect 54 0 1 0;
#X connect 54 0 58 1;
#X connect 55 0 9 0;
#X connect 57 0 28 1;
#X connect 58 0 57 0;
#X connect 59 0 28 0;
#X connect 59 1 27 0;
#X connect 59 1 26 0;
#X connect 59 2 24 0;
#X connect 59 3 23 0;
#X connect 59 3 54 0;
#X connect 60 0 61 0;
#X connect 61 0 62 0;
#X restore 506 554 pd preenRandomizer;
#X obj 506 508 bng 40 250 50 0 empty empty generate 46 20 0 10 -203904
-1 -1;
#X obj 670 539 bng 40 250 50 0 \$0-analyse \$0-analyse-trig test 46
20 0 10 -83269 -257985 -1;
#X obj 29 73 r \$0-currentPreenSet, f 25;
#X obj 29 102 prepend set, f 14;
#X msg 29 131 0 1 1140 88 279 12 57 21 108 0 242 43 1551 0 0 2 158
43 947 57 775 28 160 0 491 64 458 0 0 3 1013 82 1352 18 1031 20 0 0
170 14 1161 0 0 4 1195 8 478 92 308 34 0 0 394 15 1119 0 0 5 416 17
477 83 984 22 687 0 1 41 117 0 0 6 916 29 972 71 1559 5 0 0 1585 80
1551 0, f 136;
#X obj 29 174 s \$0-currentPreenRead, f 25;
#X connect 0 0 19 0;
#X connect 2 0 17 0;
#X connect 7 0 6 0;
#X connect 14 0 16 0;
#X connect 15 0 10 0;
#X connect 15 1 21 0;
#X connect 16 0 15 0;
#X connect 18 0 20 0;
#X connect 18 1 12 0;
#X connect 19 0 18 0;
#X connect 22 0 23 0;
#X connect 24 0 17 1;
#X connect 25 0 0 0;
#X connect 26 0 25 0;
#X connect 27 0 0 1;
#X connect 28 0 29 0;
#X connect 29 0 30 0;
#X connect 30 0 31 0;
