#N canvas 602 23 1149 768 12;
#X declare -lib timbreID/timbreIDLib;
#N canvas 208 422 685 491 preenProcess 0;
#X obj 65 250 noteout 1;
#X obj 33 26 inlet sendNote;
#X obj 33 54 t b b;
#X obj 33 282 outlet;
#X obj 65 222 makenote 80 250;
#X obj 186 99 r \$0-basenote;
#X obj 65 164 f;
#X obj 202 26 inlet test;
#X obj 81 79 loadbang;
#N canvas 93 540 640 400 env_attack 0;
#X msg 74 286 \$1 6;
#X obj 27 20 inlet val;
#X obj 84 148 + 68;
#X obj 27 330 ctlout;
#X msg 114 286 \$1 98;
#X msg 156 286 \$1 99;
#X obj 27 175 pack 0 0;
#X obj 27 225 unpack 0 0 0 0;
#X msg 26 286 \$1 38;
#X obj 26 258 % 127;
#X msg 27 200 \$1 \$1 \$2 0;
#X msg 366 256 \$1 6;
#X obj 460 49 - 1;
#X obj 460 76 * 8;
#X obj 319 301 ctlout;
#X msg 406 256 \$1 98;
#X msg 448 256 \$1 99;
#X obj 319 146 pack 0 0;
#X obj 319 196 unpack 0 0 0 0;
#X msg 318 256 \$1 38;
#X obj 318 229 % 127;
#X msg 319 171 \$1 \$1 \$2 0;
#X obj 372 116 + 69;
#X obj 319 21 inlet level;
#X obj 27 50 / 1600;
#X obj 27 82 *;
#X obj 27 144 * 1600;
#X obj 460 22 inlet opnum;
#X obj 27 114 *;
#X obj 68 258 / 127;
#X obj 360 229 / 127;
#X connect 0 0 3 0;
#X connect 1 0 24 0;
#X connect 2 0 6 1;
#X connect 4 0 3 0;
#X connect 5 0 3 0;
#X connect 6 0 10 0;
#X connect 7 0 9 0;
#X connect 7 1 29 0;
#X connect 7 2 4 0;
#X connect 7 3 5 0;
#X connect 8 0 3 0;
#X connect 9 0 8 0;
#X connect 10 0 7 0;
#X connect 11 0 14 0;
#X connect 12 0 13 0;
#X connect 13 0 22 0;
#X connect 13 0 2 0;
#X connect 15 0 14 0;
#X connect 16 0 14 0;
#X connect 17 0 21 0;
#X connect 18 0 20 0;
#X connect 18 1 30 0;
#X connect 18 2 15 0;
#X connect 18 3 16 0;
#X connect 19 0 14 0;
#X connect 20 0 19 0;
#X connect 21 0 18 0;
#X connect 22 0 17 1;
#X connect 23 0 17 0;
#X connect 24 0 25 0;
#X connect 24 0 25 1;
#X connect 25 0 28 0;
#X connect 25 0 28 1;
#X connect 26 0 6 0;
#X connect 27 0 12 0;
#X connect 28 0 26 0;
#X connect 29 0 0 0;
#X connect 30 0 11 0;
#X restore 294 237 pd env_attack;
#X floatatom 294 213 5 1 1600 0 attack - -;
#X floatatom 296 278 5 1 1600 0 decay - -;
#N canvas 1280 565 640 400 env_decay 0;
#X msg 99 258 \$1 6;
#X obj 52 22 inlet val;
#X obj 52 302 ctlout;
#X msg 139 258 \$1 98;
#X msg 181 258 \$1 99;
#X obj 52 147 pack 0 0;
#X obj 52 197 unpack 0 0 0 0;
#X msg 51 258 \$1 38;
#X obj 51 230 % 127;
#X msg 52 172 \$1 \$1 \$2 0;
#X obj 104 121 + 70;
#X msg 385 261 \$1 6;
#X obj 479 53 - 1;
#X obj 479 80 * 8;
#X obj 338 305 ctlout;
#X msg 425 261 \$1 98;
#X msg 467 261 \$1 99;
#X obj 338 150 pack 0 0;
#X obj 338 200 unpack 0 0 0 0;
#X msg 337 261 \$1 38;
#X obj 337 233 % 127;
#X msg 338 175 \$1 \$1 \$2 0;
#X obj 479 107 + 71;
#X obj 338 25 inlet level;
#X obj 479 26 inlet opnum;
#X obj 93 230 / 127;
#X obj 379 233 / 127;
#X connect 0 0 2 0;
#X connect 1 0 5 0;
#X connect 3 0 2 0;
#X connect 4 0 2 0;
#X connect 5 0 9 0;
#X connect 6 0 8 0;
#X connect 6 1 25 0;
#X connect 6 2 3 0;
#X connect 6 3 4 0;
#X connect 7 0 2 0;
#X connect 8 0 7 0;
#X connect 9 0 6 0;
#X connect 10 0 5 1;
#X connect 11 0 14 0;
#X connect 12 0 13 0;
#X connect 13 0 22 0;
#X connect 13 0 10 0;
#X connect 15 0 14 0;
#X connect 16 0 14 0;
#X connect 17 0 21 0;
#X connect 18 0 20 0;
#X connect 18 1 26 0;
#X connect 18 2 15 0;
#X connect 18 3 16 0;
#X connect 19 0 14 0;
#X connect 20 0 19 0;
#X connect 21 0 18 0;
#X connect 22 0 17 1;
#X connect 23 0 17 0;
#X connect 24 0 12 0;
#X connect 25 0 0 0;
#X connect 26 0 11 0;
#X restore 296 302 pd env_decay;
#X floatatom 296 338 5 1 1600 0 sustain - -;
#N canvas 1280 565 640 400 env_sustain 0;
#X msg 83 298 \$1 6;
#X obj 36 22 inlet val;
#X obj 36 342 ctlout;
#X msg 123 298 \$1 98;
#X msg 165 298 \$1 99;
#X obj 36 187 pack 0 0;
#X obj 36 237 unpack 0 0 0 0;
#X msg 35 298 \$1 38;
#X obj 35 270 % 127;
#X msg 36 212 \$1 \$1 \$2 0;
#X obj 87 159 + 72;
#X msg 385 298 \$1 6;
#X obj 479 50 - 1;
#X obj 479 77 * 8;
#X obj 338 342 ctlout;
#X msg 425 298 \$1 98;
#X msg 467 298 \$1 99;
#X obj 338 187 pack 0 0;
#X obj 338 237 unpack 0 0 0 0;
#X msg 337 298 \$1 38;
#X obj 337 270 % 127;
#X msg 338 212 \$1 \$1 \$2 0;
#X obj 338 22 inlet level;
#X obj 391 161 + 73;
#X obj 479 23 inlet opnum;
#X obj 26 57 / 1600;
#X obj 26 89 *;
#X obj 26 121 * 1600;
#X obj 77 270 / 127;
#X obj 379 270 / 127;
#X connect 0 0 2 0;
#X connect 1 0 25 0;
#X connect 3 0 2 0;
#X connect 4 0 2 0;
#X connect 5 0 9 0;
#X connect 6 0 8 0;
#X connect 6 1 28 0;
#X connect 6 2 3 0;
#X connect 6 3 4 0;
#X connect 7 0 2 0;
#X connect 8 0 7 0;
#X connect 9 0 6 0;
#X connect 10 0 5 1;
#X connect 11 0 14 0;
#X connect 12 0 13 0;
#X connect 13 0 23 0;
#X connect 13 0 10 0;
#X connect 15 0 14 0;
#X connect 16 0 14 0;
#X connect 17 0 21 0;
#X connect 18 0 20 0;
#X connect 18 1 29 0;
#X connect 18 2 15 0;
#X connect 18 3 16 0;
#X connect 19 0 14 0;
#X connect 20 0 19 0;
#X connect 21 0 18 0;
#X connect 22 0 17 0;
#X connect 23 0 17 1;
#X connect 24 0 12 0;
#X connect 25 0 26 0;
#X connect 25 0 26 1;
#X connect 26 0 27 0;
#X connect 27 0 5 0;
#X connect 28 0 0 0;
#X connect 29 0 11 0;
#X restore 296 362 pd env_sustain;
#X floatatom 297 398 5 1 1600 0 release - -;
#N canvas 1280 565 640 400 env_release 0;
#X msg 77 270 \$1 6;
#X obj 30 34 inlet val;
#X obj 30 314 ctlout;
#X msg 117 270 \$1 98;
#X msg 159 270 \$1 99;
#X obj 30 159 pack 0 0;
#X obj 30 209 unpack 0 0 0 0;
#X msg 29 270 \$1 38;
#X obj 29 242 % 127;
#X msg 30 184 \$1 \$1 \$2 0;
#X obj 171 116 + 74;
#X msg 410 268 \$1 6;
#X obj 504 60 - 1;
#X obj 504 87 * 8;
#X obj 363 312 ctlout;
#X msg 450 268 \$1 98;
#X msg 492 268 \$1 99;
#X obj 363 157 pack 0 0;
#X obj 363 207 unpack 0 0 0 0;
#X msg 362 268 \$1 38;
#X obj 362 240 % 127;
#X msg 363 182 \$1 \$1 \$2 0;
#X obj 363 32 inlet level;
#X obj 504 114 + 75;
#X obj 503 34 inlet opnum;
#X obj 71 242 / 127;
#X obj 404 240 / 127;
#X connect 0 0 2 0;
#X connect 1 0 5 0;
#X connect 3 0 2 0;
#X connect 4 0 2 0;
#X connect 5 0 9 0;
#X connect 6 0 8 0;
#X connect 6 1 25 0;
#X connect 6 2 3 0;
#X connect 6 3 4 0;
#X connect 7 0 2 0;
#X connect 8 0 7 0;
#X connect 9 0 6 0;
#X connect 10 0 5 1;
#X connect 11 0 14 0;
#X connect 12 0 13 0;
#X connect 13 0 23 0;
#X connect 13 0 10 0;
#X connect 15 0 14 0;
#X connect 16 0 14 0;
#X connect 17 0 21 0;
#X connect 18 0 20 0;
#X connect 18 1 26 0;
#X connect 18 2 15 0;
#X connect 18 3 16 0;
#X connect 19 0 14 0;
#X connect 20 0 19 0;
#X connect 21 0 18 0;
#X connect 22 0 17 0;
#X connect 23 0 17 1;
#X connect 24 0 12 0;
#X connect 25 0 0 0;
#X connect 26 0 11 0;
#X restore 297 422 pd env_release;
#X floatatom 338 213 5 0 100 1 level - -;
#X floatatom 336 278 5 0 100 1 level - -;
#X floatatom 343 338 5 0 100 1 level - -;
#X floatatom 344 398 5 0 100 1 level - -;
#N canvas 709 235 473 418 oscFreq 0;
#X msg 74 256 \$1 6;
#X obj 27 20 inlet val;
#X obj 168 48 - 1;
#X obj 27 300 ctlout;
#X msg 114 256 \$1 98;
#X msg 156 256 \$1 99;
#X obj 27 145 pack 0 0;
#X obj 27 195 unpack 0 0 0 0;
#X msg 26 256 \$1 38;
#X obj 26 228 % 127;
#X msg 27 170 \$1 \$1 \$2 0;
#X obj 168 101 + 46;
#X obj 168 74 * 4;
#X obj 168 21 inlet opnum;
#X obj 68 228 / 127;
#X connect 0 0 3 0;
#X connect 1 0 6 0;
#X connect 2 0 12 0;
#X connect 4 0 3 0;
#X connect 5 0 3 0;
#X connect 6 0 10 0;
#X connect 7 0 9 0;
#X connect 7 1 14 0;
#X connect 7 2 4 0;
#X connect 7 3 5 0;
#X connect 8 0 3 0;
#X connect 9 0 8 0;
#X connect 10 0 7 0;
#X connect 11 0 6 1;
#X connect 12 0 11 0;
#X connect 13 0 2 0;
#X connect 14 0 0 0;
#X restore 483 443 pd oscFreq;
#X floatatom 495 420 5 1 1600 0 freq - -;
#X floatatom 551 314 5 1 1600 0 fine_tune - -;
#N canvas 709 235 473 418 oscFineTune 0;
#X msg 73 256 \$1 6;
#X obj 27 20 inlet val;
#X obj 168 48 - 1;
#X obj 26 300 ctlout;
#X msg 113 256 \$1 98;
#X msg 155 256 \$1 99;
#X obj 27 145 pack 0 0;
#X obj 27 195 unpack 0 0 0 0;
#X msg 25 256 \$1 38;
#X obj 26 228 % 127;
#X msg 27 170 \$1 \$1 \$2 0;
#X obj 168 74 * 4;
#X obj 168 101 + 47;
#X obj 167 21 inlet opnum;
#X obj 68 228 / 127;
#X connect 0 0 3 0;
#X connect 1 0 6 0;
#X connect 2 0 11 0;
#X connect 4 0 3 0;
#X connect 5 0 3 0;
#X connect 6 0 10 0;
#X connect 7 0 9 0;
#X connect 7 1 14 0;
#X connect 7 2 4 0;
#X connect 7 3 5 0;
#X connect 8 0 3 0;
#X connect 9 0 8 0;
#X connect 10 0 7 0;
#X connect 11 0 12 0;
#X connect 12 0 6 1;
#X connect 13 0 2 0;
#X connect 14 0 0 0;
#X restore 533 340 pd oscFineTune;
#X floatatom 518 368 5 1 1600 0 IM - -;
#N canvas 709 235 473 418 oscIM 0;
#X msg 74 256 \$1 6;
#X obj 27 20 inlet val;
#X obj 168 48 - 1;
#X obj 27 300 ctlout;
#X msg 114 256 \$1 98;
#X msg 156 256 \$1 99;
#X obj 27 145 pack 0 0;
#X obj 27 195 unpack 0 0 0 0;
#X msg 26 256 \$1 38;
#X obj 26 228 % 127;
#X msg 27 170 \$1 \$1 \$2 0;
#X obj 168 74 * 2;
#X obj 168 101 + 4;
#X obj 168 21 inlet opnum;
#X obj 68 228 / 127;
#X connect 0 0 3 0;
#X connect 1 0 6 0;
#X connect 2 0 11 0;
#X connect 4 0 3 0;
#X connect 5 0 3 0;
#X connect 6 0 10 0;
#X connect 7 0 9 0;
#X connect 7 1 14 0;
#X connect 7 2 4 0;
#X connect 7 3 5 0;
#X connect 8 0 3 0;
#X connect 9 0 8 0;
#X connect 10 0 7 0;
#X connect 11 0 12 0;
#X connect 12 0 6 1;
#X connect 13 0 2 0;
#X connect 14 0 0 0;
#X restore 508 392 pd oscIM;
#X floatatom 556 258 5 1 1600 0 shape - -;
#N canvas 709 235 473 418 oscShape 0;
#X msg 74 256 \$1 6;
#X obj 27 20 inlet val;
#X obj 168 48 - 1;
#X obj 27 300 ctlout;
#X msg 114 256 \$1 98;
#X msg 156 256 \$1 99;
#X obj 27 145 pack 0 0;
#X obj 27 195 unpack 0 0 0 0;
#X msg 26 256 \$1 38;
#X obj 26 228 % 127;
#X msg 27 170 \$1 \$1 \$2 0;
#X obj 168 101 + 44;
#X obj 168 74 * 4;
#X obj 168 21 inlet opnum;
#X obj 68 228 / 127;
#X connect 0 0 3 0;
#X connect 1 0 6 0;
#X connect 2 0 12 0;
#X connect 4 0 3 0;
#X connect 5 0 3 0;
#X connect 6 0 10 0;
#X connect 7 0 9 0;
#X connect 7 1 14 0;
#X connect 7 2 4 0;
#X connect 7 3 5 0;
#X connect 8 0 3 0;
#X connect 9 0 8 0;
#X connect 10 0 7 0;
#X connect 11 0 6 1;
#X connect 12 0 11 0;
#X connect 13 0 2 0;
#X connect 14 0 0 0;
#X restore 546 285 pd oscShape;
#X obj 321 26 r \$0-playPreenPatch;
#X obj 321 54 t a b;
#X msg 353 86 zlclear;
#X obj 123 282 outlet;
#X obj 116 165 r \$0-sampleSourceMilli;
#X floatatom 145 118 5 0 0 0 - - -;
#X obj 153 85 bng 33 250 50 0 empty empty empty 17 7 0 10 -262144 -1
-1;
#X obj 423 379 t b;
#X obj 125 194 * 0.375;
#X obj 321 142 unpack 0 0 0 0 0 0 0 0 0 0 0 0 0 0 0;
#X floatatom 578 200 5 1 100 0 amp - -;
#N canvas 530 435 473 418 oscAmp 0;
#X msg 74 256 \$1 6;
#X obj 27 20 inlet val;
#X obj 168 48 - 1;
#X obj 27 300 ctlout;
#X msg 114 256 \$1 98;
#X msg 156 256 \$1 99;
#X obj 27 145 pack 0 0;
#X obj 27 195 unpack 0 0 0 0;
#X msg 26 256 \$1 38;
#X obj 26 228 % 127;
#X obj 168 21 inlet opnum;
#X obj 68 228 / 127;
#X obj 168 101 + 16;
#X obj 168 74 * 2;
#X msg 27 170 \$1 0 \$2 0;
#X connect 0 0 3 0;
#X connect 1 0 6 0;
#X connect 2 0 13 0;
#X connect 4 0 3 0;
#X connect 5 0 3 0;
#X connect 6 0 14 0;
#X connect 7 0 9 0;
#X connect 7 1 11 0;
#X connect 7 2 4 0;
#X connect 7 3 5 0;
#X connect 8 0 3 0;
#X connect 9 0 8 0;
#X connect 10 0 2 0;
#X connect 11 0 0 0;
#X connect 12 0 6 1;
#X connect 13 0 12 0;
#X connect 14 0 7 0;
#X restore 559 228 pd oscAmp;
#X obj 321 114 zl iter 15;
#X msg 81 107 64;
#X connect 1 0 2 0;
#X connect 2 0 3 0;
#X connect 2 1 6 0;
#X connect 4 0 0 0;
#X connect 4 1 0 1;
#X connect 5 0 34 0;
#X connect 6 0 4 0;
#X connect 7 0 6 0;
#X connect 8 0 42 0;
#X connect 10 0 9 0;
#X connect 11 0 12 0;
#X connect 13 0 14 0;
#X connect 15 0 16 0;
#X connect 17 0 9 1;
#X connect 18 0 12 1;
#X connect 19 0 14 1;
#X connect 20 0 16 1;
#X connect 29 0 30 0;
#X connect 30 0 41 0;
#X connect 30 1 31 0;
#X connect 31 0 41 0;
#X connect 33 0 37 0;
#X connect 34 0 6 0;
#X connect 35 0 34 0;
#X connect 36 0 20 0;
#X connect 37 0 4 2;
#X connect 38 2 10 0;
#X connect 38 3 17 0;
#X connect 38 4 11 0;
#X connect 38 5 18 0;
#X connect 38 6 13 0;
#X connect 38 7 19 0;
#X connect 38 8 15 0;
#X connect 38 9 22 0;
#X connect 38 9 36 0;
#X connect 38 9 21 0;
#X connect 38 10 25 0;
#X connect 38 10 26 0;
#X connect 38 11 23 0;
#X connect 38 11 24 0;
#X connect 38 12 27 0;
#X connect 38 12 28 0;
#X connect 38 13 39 0;
#X connect 38 13 40 0;
#X connect 38 14 28 1;
#X connect 38 14 24 1;
#X connect 38 14 26 1;
#X connect 38 14 21 1;
#X connect 38 14 16 2;
#X connect 38 14 14 2;
#X connect 38 14 12 2;
#X connect 38 14 9 2;
#X connect 38 14 40 1;
#X connect 41 0 32 0;
#X connect 41 0 38 0;
#X connect 42 0 6 0;
#X restore 692 531 pd preenProcess;
#N canvas 0 22 450 300 (subpatch) 0;
#X array \$0-sampleSource 6866 float 0;
#X coords 0 1 6865 -1 200 80 1 0 0;
#X restore 275 330 graph;
#X obj 594 81 bng 25 250 50 0 empty empty set_source 28 13 0 10 -262130
-1 -1;
#N canvas 0 22 450 300 (subpatch) 0;
#X array \$0-sampledSynth 6866 float 0;
#X coords 0 1 6865 -1 200 80 1 0 0;
#X restore 498 330 graph;
#N canvas 0 22 450 300 (subpatch) 0;
#X array \$0-fdelta-graph 24 float 2;
#X coords 0 1.1 24 -1.1 200 140 1 0 0;
#X restore 48 307 graph;
#X obj 995 366 nbx 7 32 -10 1e+37 0 0 \$0-score \$0-score-in score
-48 17 0 14 -262144 -13381 -13381 5.11801 256;
#X obj 794 612 bng 40 250 50 0 \$0-analyse \$0-analyse-trig analyse
46 20 0 10 -204800 -1 -1;
#N canvas 200 29 956 691 analyser 0;
#X obj 620 594 outlet score;
#X obj 466 27 r \$0-scrub-bar;
#X obj 466 87 t a a;
#N canvas 648 548 450 300 plot-delta 0;
#X obj 37 37 inlet;
#X obj 37 194 list prepend 0;
#X obj 160 115 list length;
#X obj 160 136 change;
#X obj 160 157 pack f \$0;
#X obj 37 77 t l l;
#X msg 160 179 \; \$2-fdelta-graph resize \$1 \;;
#X obj 37 217 s \$0-fdelta-graph;
#X connect 0 0 5 0;
#X connect 1 0 7 0;
#X connect 2 0 3 0;
#X connect 3 0 4 0;
#X connect 4 0 6 0;
#X connect 5 0 1 0;
#X connect 5 1 2 0;
#X restore 587 327 pd plot-delta;
#X obj 563 393 list-accum;
#X msg 266 102 direction pos;
#X obj 266 72 loadbang;
#X obj 387 530 i;
#X obj 412 530 + 1;
#X obj 338 503 t a b;
#X obj 411 565 % 512;
#X obj 82 186 r \$0-pop-init;
#X msg 69 311 const 0;
#X obj 563 445 tID_mean;
#X obj 177 401 s \$0-score-history;
#X obj 239 594 tabwrite \$0-score-history;
#X obj 466 146 mfcc \$0-sampleSource 100;
#X obj 664 146 mfcc \$0-sampledSynth 100;
#X obj 563 504 sel 0;
#X msg 466 57 analyze \$1 1024;
#X obj 433 594 s \$0-history-pos;
#X obj 563 419 cyclone/thresh 100;
#X obj 251 302 spigot;
#X floatatom 251 328 5 0 0 0 - - -;
#X msg 251 353 bounds 0 \$1 511 0;
#X msg 107 251 bounds 0 1 511 0;
#X obj 563 278 featureDelta 24;
#X obj 519 220 list split 24;
#X obj 665 220 list split 24;
#X obj 251 276 peak, f 13;
#X msg 339 252 1;
#X connect 1 0 19 0;
#X connect 2 0 16 0;
#X connect 2 1 17 0;
#X connect 4 0 21 0;
#X connect 5 0 26 0;
#X connect 6 0 5 0;
#X connect 7 0 8 0;
#X connect 7 0 10 0;
#X connect 8 0 7 1;
#X connect 9 0 15 0;
#X connect 9 1 7 0;
#X connect 10 0 15 1;
#X connect 10 0 20 0;
#X connect 11 0 12 0;
#X connect 11 0 25 0;
#X connect 11 0 30 0;
#X connect 12 0 14 0;
#X connect 13 0 9 0;
#X connect 13 0 18 0;
#X connect 16 0 27 0;
#X connect 17 0 28 0;
#X connect 18 1 0 0;
#X connect 18 1 29 0;
#X connect 19 0 2 0;
#X connect 21 0 13 0;
#X connect 22 0 23 0;
#X connect 23 0 24 0;
#X connect 24 0 14 0;
#X connect 25 0 14 0;
#X connect 26 0 3 0;
#X connect 26 0 4 0;
#X connect 27 0 26 0;
#X connect 28 0 26 1;
#X connect 29 0 22 0;
#X connect 29 1 22 1;
#X connect 30 0 29 1;
#X restore 995 337 pd analyser;
#N canvas 894 251 945 662 setSource 0;
#X obj 68 148 soundfiler;
#X obj 68 58 openpanel;
#X obj 438 276 f \$0;
#X obj 68 88 pack s \$0;
#X msg 68 118 read -resize \$1 \$2-sampleSource;
#X obj 438 246 t b;
#X msg 438 306 \; \$1-sampleSource normalize \;;
#X obj 36 246 s \$0-sampleSourceLen;
#X obj 68 28 inlet;
#X obj 157 407 samplerate~;
#X obj 139 460 /;
#X obj 157 377 loadbang;
#X obj 133 377 bng 15 250 50 0 empty empty empty 17 7 0 10 -262144
-1 -1;
#X obj 139 520 s \$0-sampleSourceMilli;
#X obj 139 490 * 1000;
#X obj 280 28 inlet filepath;
#X obj 768 291 readsf~;
#X obj 745 159 unpack s;
#X msg 768 258 1;
#X obj 673 448 dac~;
#X obj 745 192 prepend open;
#X floatatom 826 421 10 0 0 1 ms - -;
#X obj 814 388 attackTime~ 2048;
#N canvas 713 346 570 417 onsets 0;
#X obj 56 53 inlet~;
#X obj 176 347 outlet;
#X obj 3 4 cnv 10 400 10 empty empty empty 20 12 0 14 -233017 -66577
0;
#X obj 3 4 cnv 10 10 400 empty empty empty 20 12 0 14 -233017 -66577
0;
#X obj 208 193 bng 15 250 50 0 empty empty empty 17 7 0 10 -262144
-1 -1;
#X obj 259 96 loadbang;
#X obj 56 335 outlet~;
#X obj 176 155 bark~ 4096 1024 0.5;
#X msg 259 119 minvel 50 \, debounce 200 \, thresh -1 20;
#X connect 0 0 6 0;
#X connect 0 0 7 0;
#X connect 5 0 8 0;
#X connect 7 0 4 0;
#X connect 7 0 1 0;
#X connect 8 0 7 0;
#X restore 814 345 pd onsets;
#X obj 814 454 s \$0-attack-time;
#X obj 213 245 pack f \$0;
#X obj 673 414 *~ 0.85;
#X msg 213 273 \; \$2-sampledSynth resize \$1;
#X obj 50 576 prepend set;
#X obj 50 603 outlet;
#X obj 716 618 s \$0-basenote;
#X obj 745 225 t b b a;
#X obj 716 490 cepstrumPitch~ 4096 30 64;
#X obj 716 520 + 0.49;
#X obj 716 571 i;
#X floatatom 716 596 5 0 0 0 - - -;
#X obj 534 539 nbx 5 14 0 1e+37 0 0 empty empty empty 0 -8 0 10 -262144
-1 -1 0.652778 256;
#X obj 534 499 specHarmonicity~ 8192;
#X obj 534 571 s \$0-harmonicity;
#X obj 390 501 specKurtosis~ 1024;
#X obj 386 541 nbx 5 14 0 1e+37 0 0 empty empty empty 0 -8 0 10 -262144
-1 -1 10.7843 256;
#X obj 386 573 s \$0-peakedness;
#X obj 50 546 unpack s 0;
#X obj 361 541 bng 15 250 50 0 empty empty empty 17 7 0 10 -262144
-1 -1;
#X obj 505 538 bng 15 250 50 0 empty empty empty 17 7 0 10 -262144
-1 -1;
#X obj 716 546 + 11;
#X connect 0 0 7 0;
#X connect 0 0 10 0;
#X connect 0 0 25 0;
#X connect 0 1 5 0;
#X connect 1 0 3 0;
#X connect 2 0 6 0;
#X connect 3 0 4 0;
#X connect 3 0 17 0;
#X connect 3 0 42 0;
#X connect 4 0 0 0;
#X connect 5 0 2 0;
#X connect 8 0 1 0;
#X connect 9 0 10 1;
#X connect 10 0 14 0;
#X connect 11 0 9 0;
#X connect 12 0 9 0;
#X connect 14 0 13 0;
#X connect 15 0 3 0;
#X connect 16 0 23 0;
#X connect 16 0 26 0;
#X connect 16 0 32 0;
#X connect 16 0 37 0;
#X connect 16 0 39 0;
#X connect 16 1 32 0;
#X connect 16 1 37 0;
#X connect 16 1 39 0;
#X connect 17 0 20 0;
#X connect 18 0 16 0;
#X connect 20 0 31 0;
#X connect 22 0 21 0;
#X connect 22 0 24 0;
#X connect 23 0 22 0;
#X connect 23 1 22 0;
#X connect 25 0 27 0;
#X connect 26 0 19 0;
#X connect 26 0 19 1;
#X connect 28 0 29 0;
#X connect 31 1 18 0;
#X connect 31 2 16 0;
#X connect 32 0 33 0;
#X connect 33 0 45 0;
#X connect 34 0 35 0;
#X connect 35 0 30 0;
#X connect 36 0 38 0;
#X connect 37 0 36 0;
#X connect 39 0 40 0;
#X connect 40 0 41 0;
#X connect 42 0 28 0;
#X connect 43 0 40 0;
#X connect 44 0 36 0;
#X connect 45 0 34 0;
#X restore 594 111 pd setSource;
#N canvas 54 238 675 615 audiocapture 0;
#X obj 267 13 inlet;
#X msg 252 219 bang;
#X obj 191 401 line~;
#X obj 161 432 *~;
#X obj 453 455 f \$0;
#X obj 287 569 outlet;
#X msg 252 521 1;
#X msg 323 521 0;
#X obj 453 421 bng 15 250 50 0 empty empty empty 17 7 0 10 -262144
-1 -1;
#X obj 323 276 del 200;
#X obj 369 245 r \$0-sampleSourceMilli;
#X obj 461 569 outlet done;
#X obj 161 471 tabwrite~ \$0-sampledSynth;
#X msg 453 482 \; \$1-sampledSynth normalize \;;
#X obj 25 360 dac~;
#X obj 120 17 adc~;
#X obj 38 311 *~;
#X obj 85 225 vsl 30 64 0.0002 2 1 0 empty empty empty 0 -9 0 10 -262144
-1 -1 0 1;
#X msg 405 350 1;
#X msg 346 339 0 2;
#X obj 252 180 spigot;
#X msg 267 138 1;
#X msg 314 138 0;
#X obj 164 117 sel 1;
#X obj 138 364 hip~ 5;
#X obj 405 376 ctlout 120, f 12;
#X obj 519 376 ctlout 73, f 12;
#X obj 222 90 bonk~;
#X msg 274 329 0;
#X msg 235 332 1 1;
#X obj 225 118 t b;
#X obj 153 63 env~ 1024;
#X msg 519 350 127;
#X obj 528 314 ctlout 64, f 12;
#X msg 528 288 0;
#X obj 323 311 t b b b b b;
#X msg 253 51 attack-frames 1;
#X obj 165 88 > 46;
#X connect 0 0 21 0;
#X connect 1 0 29 0;
#X connect 1 0 6 0;
#X connect 1 0 9 0;
#X connect 1 0 12 0;
#X connect 2 0 3 1;
#X connect 3 0 12 0;
#X connect 4 0 13 0;
#X connect 6 0 5 0;
#X connect 7 0 5 0;
#X connect 8 0 4 0;
#X connect 9 0 35 0;
#X connect 10 0 9 1;
#X connect 15 0 24 0;
#X connect 15 0 27 0;
#X connect 15 0 31 0;
#X connect 15 0 16 0;
#X connect 15 1 27 0;
#X connect 15 1 24 0;
#X connect 15 1 31 0;
#X connect 16 0 14 0;
#X connect 16 0 14 1;
#X connect 17 0 16 1;
#X connect 18 0 25 0;
#X connect 19 0 2 0;
#X connect 20 0 1 0;
#X connect 20 0 22 0;
#X connect 21 0 20 1;
#X connect 21 0 28 0;
#X connect 22 0 20 1;
#X connect 23 0 20 0;
#X connect 24 0 3 0;
#X connect 27 1 30 0;
#X connect 28 0 2 0;
#X connect 29 0 2 0;
#X connect 30 0 20 0;
#X connect 31 0 37 0;
#X connect 32 0 26 0;
#X connect 34 0 33 0;
#X connect 35 0 4 0;
#X connect 35 0 7 0;
#X connect 35 0 11 0;
#X connect 35 1 19 0;
#X connect 35 2 18 0;
#X connect 35 3 32 0;
#X connect 35 4 34 0;
#X connect 36 0 27 0;
#X connect 37 0 23 0;
#X restore 692 587 pd audiocapture;
#X obj 692 556 bng 25 250 50 0 empty \$0-start-rec-trig start_record
28 13 0 10 -261234 -1 -1;
#X obj 692 612 tgl 15 0 empty empty rec_on 17 7 0 10 -261234 -258113
-1 0 1;
#X msg 692 92 /Volumes/FAT/samples/tubeslap2.wav, f 59;
#N canvas 535 23 526 964 preenRandomizer 0;
#X obj 242 64 uzi 6 1, f 11;
#X obj 242 11 inlet;
#X obj 242 38 t b;
#X obj 316 90 t b b f;
#X obj 254 566 random 1600;
#X obj 51 371 random 100;
#X obj 271 382 random 1600;
#X obj 189 477 random 1600;
#X obj 233 535 random 100;
#X obj 210 506 random 1600;
#X obj 287 623 random 100;
#X obj 268 216 random 1600;
#X obj 88 406 expr 100 - $f1;
#X obj 296 445 +;
#X obj 210 134 t b b b;
#X obj 56 164 outlet;
#X obj 56 111 t b;
#X obj 242 915 s \$0-savePreenPatch;
#X obj 86 915 s \$0-playPreenPatch;
#X obj 131 880 t a a;
#X obj 342 126 r \$0-attack-time;
#X obj 342 188 min 1600;
#X obj 314 652 random 20;
#X obj 314 264 r \$0-sampleSourceMilli;
#X obj 296 477 expr $f2 - $f1;
#X floatatom 379 351 5 0 0 0 - - -;
#X obj 314 294 * 1.2;
#X obj 342 156 * 2;
#X obj 314 679 + 883;
#X obj 56 137 delay 60;
#N canvas 1223 332 584 555 quantize 0;
#X obj 186 5 inlet;
#X obj 186 436 outlet;
#X obj 186 281 / 1;
#X obj 186 369 * 1;
#X obj 186 325 i;
#X obj 274 48 r \$0-harmonicity;
#X obj 274 77 > 0.5;
#X obj 274 106 sel 0 1;
#X msg 274 135 1;
#X msg 322 135 50;
#X obj 294 168 i;
#X connect 0 0 2 0;
#X connect 2 0 4 0;
#X connect 3 0 1 0;
#X connect 4 0 3 0;
#X connect 5 0 6 0;
#X connect 6 0 7 0;
#X connect 7 0 8 0;
#X connect 7 1 9 0;
#X connect 8 0 10 0;
#X connect 9 0 10 0;
#X connect 10 0 2 1;
#X connect 10 0 3 1;
#X restore 254 593 pd quantize;
#X obj 394 617 r \$0-peakedness;
#X obj 404 677 min 7;
#X obj 394 645 expr abs(300-$f1);
#X obj 451 673 nbx 5 14 -1e+37 1e+37 0 0 empty empty empty 0 -8 0 10
-262144 -1 -1 289.216 256;
#X obj 332 719 random 6;
#X obj 131 816 pack 0 0 0 0 0 0 0 0 0 0 0 0 0 0 0;
#X obj 131 852 zl group 90;
#X obj 349 752 random 40;
#X obj 349 781 + 60;
#X obj 314 321 min 400;
#X connect 0 1 16 0;
#X connect 0 2 3 0;
#X connect 1 0 2 0;
#X connect 2 0 0 0;
#X connect 3 0 36 0;
#X connect 3 1 14 0;
#X connect 3 2 36 14;
#X connect 4 0 30 0;
#X connect 5 0 12 0;
#X connect 5 0 36 3;
#X connect 6 0 13 0;
#X connect 6 0 36 4;
#X connect 7 0 36 6;
#X connect 8 0 36 7;
#X connect 9 0 36 8;
#X connect 10 0 36 10;
#X connect 11 0 13 1;
#X connect 11 0 36 2;
#X connect 12 0 36 5;
#X connect 13 0 24 0;
#X connect 14 0 4 0;
#X connect 14 0 10 0;
#X connect 14 0 8 0;
#X connect 14 0 7 0;
#X connect 14 0 5 0;
#X connect 14 0 9 0;
#X connect 14 0 22 0;
#X connect 14 0 35 0;
#X connect 14 0 38 0;
#X connect 14 1 6 0;
#X connect 14 2 11 0;
#X connect 16 0 29 0;
#X connect 19 0 18 0;
#X connect 19 1 17 0;
#X connect 20 0 27 0;
#X connect 21 0 11 1;
#X connect 22 0 28 0;
#X connect 23 0 26 0;
#X connect 24 0 9 1;
#X connect 26 0 40 0;
#X connect 27 0 21 0;
#X connect 28 0 36 11;
#X connect 29 0 15 0;
#X connect 30 0 36 9;
#X connect 31 0 33 0;
#X connect 33 0 32 0;
#X connect 33 0 34 0;
#X connect 35 0 36 12;
#X connect 36 0 37 0;
#X connect 37 0 19 0;
#X connect 38 0 39 0;
#X connect 39 0 36 13;
#X connect 40 0 6 1;
#X connect 40 0 24 1;
#X connect 40 0 7 1;
#X connect 40 0 25 0;
#X connect 40 0 4 1;
#X restore 692 506 pd preenRandomizer;
#X obj 692 460 bng 40 250 50 0 empty \$0-generate-new generate_one
46 20 0 10 -203904 -1 -1;
#X obj 831 491 bng 40 250 50 0 empty \$0-retrig-note retrig_note 46
20 0 10 -261682 -86277 -1;
#X obj 52 173 prepend set, f 14;
#X msg 20 200 5.11801 0 0 22 15 54 85 91 67 67 150 43 886 5 90 1 0
0 24 91 172 9 58 58 0 150 88 898 3 84 2 0 0 26 17 135 83 123 34 2 150
23 902 3 81 3 0 0 22 10 21 90 46 95 66 0 10 900 4 99 4 0 0 23 5 67
95 144 5 81 0 28 892 3 65 5 0 0 19 81 104 19 170 2 44 150 26 894 1
79 6, f 156;
#X obj 109 497 nbx 3 22 1 1e+37 0 0 \$0-pop-size \$0-pop-size-init
population_size 0 -12 0 14 -4160 -262144 -128992 24 256;
#N canvas 297 303 379 454 scansample 0;
#X obj 142 266 s \$0-scrub-bar;
#X obj 20 10 inlet;
#X obj 96 210 uzi 0 0;
#X obj 142 87 r \$0-sampleSourceLen;
#X obj 142 117 / 200;
#X obj 142 238 * 200;
#X floatatom 155 180 5 0 0 0 - - -;
#X obj 142 147 i;
#X connect 1 0 2 0;
#X connect 2 2 5 0;
#X connect 3 0 4 0;
#X connect 4 0 7 0;
#X connect 5 0 0 0;
#X connect 7 0 2 1;
#X connect 7 0 6 0;
#X restore 794 658 pd scansample;
#X obj 365 527 bng 25 250 50 0 empty empty read_best_result 28 13 0
10 -204786 -1 -1;
#X obj 112 631 hsl 64 19 0.1 0.9 0 0 \$0-mutation-rate \$0-mutation-rate-init
mutation_rate 70 9 0 10 -204800 -1 -1 4600 1;
#N canvas 0 23 842 753 init 0;
#X obj 168 23 loadbang;
#X obj 113 179 s \$0-mutation-rate-init;
#X obj 189 124 s \$0-pop-size-init;
#X msg 55 146 0;
#X obj 55 227 s \$0-cycle-count;
#X obj 195 347 declare -lib timbreID/timbreIDLib;
#X obj 65 315 bng 25 250 50 0 empty empty set_test 28 13 0 10 -262130
-1 -1;
#N canvas 0 23 450 300 setTestSample 0;
#X obj 40 124 soundfiler;
#X obj 39 86 openpanel;
#X obj 139 124 f \$0;
#X obj 106 86 pack s \$0;
#X obj 114 124 t b;
#X msg 40 105 read -resize \$1 \$2-sampleTest;
#X msg 169 124 \; \$1-sampleTest normalize \;;
#X obj 56 30 inlet;
#X connect 0 1 4 0;
#X connect 1 0 3 0;
#X connect 2 0 6 0;
#X connect 3 0 5 0;
#X connect 4 0 2 0;
#X connect 5 0 0 0;
#X connect 7 0 1 0;
#X restore 66 346 pd setTestSample;
#X obj 352 113 s \$0-algo-init;
#X msg 189 98 30;
#X msg 352 89 21;
#X msg 113 154 0.33;
#X connect 0 0 11 0;
#X connect 0 0 9 0;
#X connect 0 0 3 0;
#X connect 0 0 10 0;
#X connect 3 0 4 0;
#X connect 6 0 7 0;
#X connect 9 0 2 0;
#X connect 10 0 8 0;
#X connect 11 0 1 0;
#X restore 16 733 pd init;
#X obj 109 602 nbx 5 22 0 1e+37 0 0 empty \$0-cycle-count cycle_count
80 11 0 14 -262144 -128992 -128992 9 256;
#X obj 109 526 tgl 40 1 \$0-mutation-state empty mutation 44 20 0 14
-262130 -1 -1 1 1;
#X obj 639 491 bng 40 250 50 0 empty \$0-reanalyse process -50 20 0
10 -261682 -260097 -86277;
#X obj 1010 548 nbx 3 22 1 28 0 0 empty \$0-algo-init algo 0 -12 0
14 -4160 -262144 -128992 21 256;
#X obj 1010 599 ctlout 16;
#X obj 20 120 prepend;
#X msg 20 44 set \$1;
#X obj 20 69 t b a;
#X obj 20 94 list store;
#X obj 20 19 r \$0-score;
#X obj 20 147 t b a;
#N canvas 51 23 1174 908 collProcess 0;
#X obj 274 298 coll workingColl 1;
#C restore;
#X obj 17 166 prepend set;
#X obj 221 232 prepend 0;
#X obj 251 386 + 1;
#X obj 221 386 i;
#X obj 221 259 t b a;
#X obj 448 35 inlet getbest;
#X msg 500 197 renumber;
#X obj 221 539 sel 0;
#X obj 221 456 %;
#X obj 251 610 + 1;
#X obj 221 656 s \$0-cycle-count;
#X obj 221 610 f 0;
#X obj 446 67 t b b;
#X msg 574 199 sort 1 0;
#X obj 458 99 r \$0-pop-size;
#X obj 413 153 i;
#X msg 277 178 clear;
#X obj 445 126 - 1;
#X msg 495 282 0;
#X obj 221 488 t f f;
#X obj 506 130 r \$0-sort-patchlist;
#X obj 98 69 r \$0-scoredPreenPatch;
#X obj 573 740 zl slice 1;
#X obj 605 709 s \$0-scoredPreenPatchDisplay;
#X obj 573 677 t a a;
#X obj 672 807 s \$0-playPreenPatch;
#X obj 640 837 s \$0-retrig-note;
#X obj 640 774 t b a;
#X obj 516 839 s \$0-score-in;
#X obj 516 808 prepend set;
#X obj 820 118 r \$0-pop-size;
#X obj 820 145 change;
#X obj 306 602 s \$0-cycle-pos;
#X obj 17 139 r \$0-cycle-pos;
#X obj 326 507 <;
#X obj 326 535 sel 1;
#X obj 326 562 s \$0-sort-patchlist;
#X obj 771 415 f;
#X obj 820 381 * 0.5;
#X obj 357 227 s \$0-cycle-pos;
#X obj 325 202 t f f;
#X obj 820 331 f;
#X obj 279 126 t b b b;
#X obj 739 264 sel 0;
#X obj 771 369 t b;
#X obj 279 99 r \$0-pop-init;
#X obj 488 164 t b b b;
#X obj 391 197 s \$0-sort-done;
#X obj 669 29 inlet getone;
#X obj 931 293 s \$0-get-one;
#X msg 931 266 range 0 \$1;
#X connect 0 0 25 0;
#X connect 1 0 2 0;
#X connect 2 0 5 0;
#X connect 3 0 4 1;
#X connect 4 0 3 0;
#X connect 4 0 9 0;
#X connect 5 0 4 0;
#X connect 5 1 0 0;
#X connect 6 0 13 0;
#X connect 7 0 0 0;
#X connect 8 0 12 0;
#X connect 9 0 20 0;
#X connect 10 0 12 1;
#X connect 12 0 10 0;
#X connect 12 0 11 0;
#X connect 12 0 44 0;
#X connect 13 0 16 0;
#X connect 13 1 47 0;
#X connect 14 0 0 0;
#X connect 15 0 18 0;
#X connect 16 0 41 0;
#X connect 17 0 0 0;
#X connect 18 0 16 1;
#X connect 18 0 51 0;
#X connect 19 0 4 0;
#X connect 19 0 12 0;
#X connect 20 0 8 0;
#X connect 20 0 35 1;
#X connect 20 1 33 0;
#X connect 20 1 35 0;
#X connect 21 0 47 0;
#X connect 22 0 2 0;
#X connect 23 1 28 0;
#X connect 25 0 23 0;
#X connect 25 1 24 0;
#X connect 28 1 26 0;
#X connect 30 0 29 0;
#X connect 31 0 32 0;
#X connect 32 0 19 0;
#X connect 32 0 42 0;
#X connect 34 0 1 0;
#X connect 35 0 36 0;
#X connect 36 0 37 0;
#X connect 38 0 9 1;
#X connect 39 0 38 1;
#X connect 41 0 0 0;
#X connect 41 1 40 0;
#X connect 42 0 39 0;
#X connect 42 0 9 1;
#X connect 43 0 19 0;
#X connect 43 1 17 0;
#X connect 43 2 42 0;
#X connect 44 0 42 0;
#X connect 44 1 45 0;
#X connect 45 0 38 0;
#X connect 46 0 43 0;
#X connect 47 0 48 0;
#X connect 47 1 7 0;
#X connect 47 2 14 0;
#X connect 49 0 41 0;
#X connect 51 0 50 0;
#X restore 365 581 pd collProcess;
#X obj 87 69 r \$0-savePreenPatch, f 25;
#X obj 20 240 s \$0-scoredPreenPatch, f 25;
#X obj 71 147 r \$0-scoredPreenPatchDisplay;
#X obj 819 550 bng 25 250 50 0 empty empty patch_update 28 13 0 10
-204786 -1 -1;
#X obj 109 573 nbx 3 22 0 1e+37 0 0 empty \$0-cycle-pos cycle_pos 56
11 0 14 -262144 -128992 -128992 7 256;
#X obj 110 658 bng 15 250 50 0 empty \$0-sort-patchlist sorted 17 7
0 10 -204786 -1 -1;
#N canvas 317 23 935 717 mutaloop 0;
#X obj 203 108 r \$0-mutation-state;
#X obj 136 178 spigot;
#X obj 112 504 s \$0-generate-new;
#X obj 230 173 sel 1;
#X obj 111 64 r \$0-score;
#X obj 123 96 t b;
#X obj 374 169 r \$0-cycle-count;
#X obj 112 449 spigot;
#X obj 179 373 == 0;
#X obj 384 278 > 0;
#X obj 365 379 spigot;
#X obj 316 507 s \$0-reanalyse;
#X obj 472 507 s \$0-get-one;
#X obj 491 417 r \$0-cycle-pos;
#X obj 472 462 f;
#X obj 480 345 s \$0-cycle-pos;
#X obj 480 286 sel 1;
#X obj 384 234 t f f;
#X msg 480 314 0;
#X obj 316 462 delay 30;
#N canvas 32 533 731 418 compare 0;
#X obj 105 39 inlet;
#X obj 105 101 zl slice 1;
#X obj 277 39 inlet;
#X obj 277 101 zl slice 1;
#X obj 263 159 list-compare;
#X obj 263 190 sel 1;
#X obj 263 266 s \$0-generate-new;
#X obj 493 266 print generate2;
#X connect 0 0 1 0;
#X connect 1 1 4 0;
#X connect 2 0 3 0;
#X connect 3 1 4 1;
#X connect 4 0 5 0;
#X connect 5 0 6 0;
#X connect 5 0 7 0;
#X restore 405 654 pd compare;
#X obj 364 417 t b b b;
#X obj 472 615 zl reg;
#X obj 468 556 r \$0-playPreenPatch;
#X connect 0 0 1 1;
#X connect 0 0 3 0;
#X connect 1 0 7 0;
#X connect 1 0 10 0;
#X connect 3 0 7 0;
#X connect 4 0 5 0;
#X connect 5 0 1 0;
#X connect 6 0 8 0;
#X connect 6 0 17 0;
#X connect 7 0 2 0;
#X connect 8 0 7 1;
#X connect 9 0 10 1;
#X connect 10 0 21 0;
#X connect 13 0 14 1;
#X connect 14 0 12 0;
#X connect 16 0 18 0;
#X connect 17 0 9 0;
#X connect 17 1 16 0;
#X connect 18 0 15 0;
#X connect 19 0 11 0;
#X connect 21 0 19 0;
#X connect 21 1 22 0;
#X connect 21 2 14 0;
#X connect 22 0 20 1;
#X connect 23 0 20 0;
#X connect 23 0 22 1;
#X restore 692 632 pd mutaloop;
#X obj 167 497 bng 22 250 50 0 \$0-pop-init empty reset 25 11 0 10
-203904 -262130 -1;
#N canvas 992 23 620 964 mutate 0;
#X obj 233 356 coll workingColl 1;
#C restore;
#X obj 59 24 r \$0-sort-done;
#X obj 247 17 r \$0-pop-size;
#X obj 91 356 coll workingColl 1;
#C restore;
#X obj 106 584 list-inter;
#X obj 52 478 r \$0-mutation-rate;
#X obj 71 546 f;
#X obj 416 914 prepend 0;
#X obj 416 944 coll workingColl 1;
#C restore;
#X obj 416 884 prepend set;
#X obj 59 127 uzi 0 0, f 9;
#X obj 89 156 t b;
#X obj 89 183 s \$0-mutated-patchlist;
#X obj 71 384 t b a b;
#X obj 117 411 random 100;
#X obj 34 507 *;
#X obj 111 737 list-nth 2;
#X obj 140 701 + 3;
#X obj 111 761 *;
#X obj 111 785 list-replace 2;
#X obj 106 608 t a b a;
#X obj 140 677 random 80;
#X text 12 702 mutate one :;
#X obj 233 272 random;
#X obj 233 299 +;
#X obj 119 220 t f f f b;
#X obj 292 183 * 0.5;
#X obj 210 61 * 0.5;
#X obj 292 210 i;
#X obj 210 88 i;
#X obj 34 448 expr 1 + ($f1 - 50) / 250;
#N canvas 150 240 464 719 pitchquantize 0;
#X obj 64 23 inlet;
#X obj 64 672 outlet;
#N canvas 1223 332 584 555 quantize 0;
#X obj 199 5 inlet;
#X obj 199 478 outlet;
#X obj 199 323 / 1;
#X obj 199 416 * 1;
#X obj 199 367 i;
#X obj 232 55 r \$0-harmonicity;
#X obj 279 166 sel 0 1;
#X msg 279 203 1;
#X obj 279 269 i;
#X obj 232 129 > 0.5;
#X obj 279 129 > 0.25;
#X obj 232 92 t f f;
#X msg 232 203 50;
#X obj 232 166 sel 1;
#X msg 308 203 25;
#X connect 0 0 2 0;
#X connect 2 0 4 0;
#X connect 3 0 1 0;
#X connect 4 0 3 0;
#X connect 5 0 11 0;
#X connect 6 0 7 0;
#X connect 6 1 14 0;
#X connect 7 0 8 0;
#X connect 8 0 2 1;
#X connect 8 0 3 1;
#X connect 9 0 13 0;
#X connect 10 0 6 0;
#X connect 11 0 9 0;
#X connect 11 1 10 0;
#X connect 12 0 8 0;
#X connect 13 0 12 0;
#X connect 14 0 8 0;
#X restore 289 346 pd quantize;
#X obj 64 56 zl slice 1;
#X obj 64 640 zl join;
#X obj 130 255 zl group 15;
#X obj 131 438 zl group 90;
#X obj 131 314 unpack 0 0 0 0 0 0 0 0 0 0 0 0 0 0 0;
#X obj 131 379 pack 0 0 0 0 0 0 0 0 0 0 0 0 0 0 0;
#X connect 0 0 3 0;
#X connect 2 0 8 9;
#X connect 3 0 4 0;
#X connect 3 1 5 0;
#X connect 4 0 1 0;
#X connect 5 0 7 0;
#X connect 6 0 4 1;
#X connect 7 0 8 0;
#X connect 7 1 8 1;
#X connect 7 2 8 2;
#X connect 7 3 8 3;
#X connect 7 4 8 4;
#X connect 7 5 8 5;
#X connect 7 6 8 6;
#X connect 7 7 8 7;
#X connect 7 8 8 8;
#X connect 7 9 2 0;
#X connect 7 10 8 10;
#X connect 7 11 8 11;
#X connect 7 12 8 12;
#X connect 7 13 8 13;
#X connect 7 14 8 14;
#X connect 8 0 6 0;
#X restore 111 809 pd pitchquantize;
#N canvas 32 533 731 418 compare 0;
#X obj 105 39 inlet;
#X obj 105 101 zl slice 1;
#X obj 277 39 inlet;
#X obj 277 101 zl slice 1;
#X obj 263 159 list-compare;
#X obj 263 190 sel 1;
#X obj 263 266 s \$0-generate-new;
#X obj 512 39 inlet;
#X obj 494 225 i;
#X obj 494 266 print generate \$1;
#X connect 0 0 1 0;
#X connect 1 1 4 0;
#X connect 2 0 3 0;
#X connect 3 1 4 1;
#X connect 4 0 5 0;
#X connect 5 0 6 0;
#X connect 5 0 8 0;
#X connect 7 0 8 1;
#X connect 8 0 9 0;
#X restore 111 917 pd compare;
#X obj 111 833 t a a;
#X connect 0 0 4 2;
#X connect 1 0 10 0;
#X connect 2 0 26 0;
#X connect 2 0 27 0;
#X connect 3 0 13 0;
#X connect 4 0 20 0;
#X connect 5 0 15 1;
#X connect 6 0 4 0;
#X connect 7 0 8 0;
#X connect 9 0 7 0;
#X connect 10 1 11 0;
#X connect 10 2 25 0;
#X connect 11 0 12 0;
#X connect 13 0 6 0;
#X connect 13 1 4 1;
#X connect 13 1 32 1;
#X connect 13 2 14 0;
#X connect 14 0 30 0;
#X connect 15 0 6 1;
#X connect 16 0 18 0;
#X connect 17 0 16 1;
#X connect 17 0 19 1;
#X connect 18 0 19 0;
#X connect 19 0 31 0;
#X connect 20 0 16 0;
#X connect 20 1 21 0;
#X connect 20 2 19 2;
#X connect 21 0 17 0;
#X connect 23 0 24 0;
#X connect 24 0 0 0;
#X connect 25 0 3 0;
#X connect 25 1 32 2;
#X connect 25 2 9 0;
#X connect 25 3 23 0;
#X connect 26 0 28 0;
#X connect 27 0 29 0;
#X connect 28 0 23 1;
#X connect 29 0 24 1;
#X connect 29 0 10 1;
#X connect 30 0 15 0;
#X connect 30 0 18 1;
#X connect 31 0 33 0;
#X connect 33 0 32 0;
#X connect 33 1 7 0;
#X restore 365 604 pd mutate;
#X obj 173 658 bng 15 250 50 0 empty \$0-mutated-patchlist mutated
17 7 0 10 -261682 -1 -1;
#X obj 460 559 nbx 3 22 0 23 0 0 empty \$0-get-one get_one 52 11 0
12 -4160 -262144 -128992 6 256;
#N canvas 0 22 450 278 (subpatch) 0;
#X array \$0-score-history 512 float 4;
#X coords 0 11.9307 511 0 200 80 1 0 0;
#X restore 729 330 graph;
#X msg 692 73 /Volumes/FAT/samples/AmigaD7/Converted/Acid/Bip/Bip.q5.wav
, f 59;
#X obj 732 410 hsl 195 8 0 512 0 0 empty \$0-history-pos empty -2 -8
0 10 -262144 -258113 -262144 5229 1;
#X msg 484 130 /Volumes/FAT/samples/AmigaD7/Converted/Acid/Bip/Bip.q5.wav
, f 90;
#X obj 361 34 notein;
#X obj 357 123 noteout;
#X obj 326 89 spigot;
#X obj 361 68 tgl 15 0 empty empty empty 17 7 0 10 -262144 -1 -1 0
1;
#X msg 692 54 /Volumes/FAT/wavetables/lib_14_march_2001/T864.wav,
f 59;
#X obj 387 559 bng 22 250 50 0 empty empty empty 17 7 0 10 -262144
-1 -1;
#X obj 409 562 i;
#X obj 434 562 + 1;
#X obj 1010 575 - 1;
#X text 396 245 1 Set Source 2 Set mutation on 3 Generate one 4 tweak
;
#X msg 488 35 /Volumes/FAT/wavetables/MassiveWaveTablesForSerum/M4-Digital-Hybrid/03-Deep_Throat.wav
, f 88;
#X msg 487 15 /Volumes/FAT/wavetables/MassiveWaveTablesForSerum/M3-Analog-Electric/20-Frozen.wav
, f 88;
#X connect 0 0 10 0;
#X connect 0 1 38 0;
#X connect 2 0 8 0;
#X connect 6 0 19 0;
#X connect 7 0 5 0;
#X connect 8 0 49 0;
#X connect 9 0 11 0;
#X connect 9 1 6 0;
#X connect 10 0 9 0;
#X connect 12 0 8 1;
#X connect 13 0 0 0;
#X connect 14 0 13 0;
#X connect 15 0 0 1;
#X connect 16 0 17 0;
#X connect 17 0 36 0;
#X connect 20 0 34 0;
#X connect 25 0 0 0;
#X connect 26 0 58 0;
#X connect 28 0 33 0;
#X connect 29 0 30 0;
#X connect 30 0 31 0;
#X connect 30 1 28 0;
#X connect 31 0 28 0;
#X connect 32 0 29 0;
#X connect 33 0 17 0;
#X connect 33 1 16 0;
#X connect 35 0 31 1;
#X connect 37 0 16 0;
#X connect 45 0 34 1;
#X connect 45 0 56 1;
#X connect 47 0 8 1;
#X connect 49 0 8 1;
#X connect 50 0 52 0;
#X connect 50 1 51 1;
#X connect 50 2 51 2;
#X connect 52 0 51 0;
#X connect 53 0 52 1;
#X connect 54 0 8 1;
#X connect 55 0 56 0;
#X connect 56 0 57 0;
#X connect 57 0 45 0;
#X connect 58 0 27 0;
#X connect 60 0 8 1;
#X connect 61 0 8 1;
