#N canvas 1064 23 856 825 12;
#X declare -lib timbreID/timbreIDLib;
#N canvas 0 23 960 491 preenProcess 0;
#X floatatom 508 67 0 0 127 0 - - -;
#X obj 508 93 ctlout 80 1;
#X text 504 46 Carrier Op env Attacks;
#X floatatom 509 145 0 0 127 0 - - -;
#X text 505 124 Carrier Op env Releases;
#X obj 509 171 ctlout 81 1;
#X floatatom 690 69 0 0 127 0 - - -;
#X floatatom 691 147 0 0 127 0 - - -;
#X obj 690 95 ctlout 62 1;
#X obj 691 173 ctlout 63 1;
#X text 686 48 Modulator Op env Attacks;
#X text 687 126 Modulator Op env Releases;
#N canvas 93 540 640 400 env_attack 0;
#X msg 74 256 \$1 6;
#X obj 27 20 inlet val;
#X obj 168 48 - 1;
#X obj 168 75 * 8;
#X obj 168 102 + 68;
#X obj 27 300 ctlout;
#X msg 114 256 \$1 98;
#X msg 156 256 \$1 99;
#X obj 27 145 pack 0 0;
#X obj 27 195 unpack 0 0 0 0;
#X msg 26 256 \$1 38;
#X obj 26 228 % 127;
#X msg 27 170 \$1 \$1 \$2 0;
#X obj 68 228 / 128;
#X obj 168 21 r opnum;
#X msg 366 257 \$1 6;
#X obj 460 49 - 1;
#X obj 460 76 * 8;
#X obj 319 301 ctlout;
#X msg 406 257 \$1 98;
#X msg 448 257 \$1 99;
#X obj 319 146 pack 0 0;
#X obj 319 196 unpack 0 0 0 0;
#X msg 318 257 \$1 38;
#X obj 318 229 % 127;
#X msg 319 171 \$1 \$1 \$2 0;
#X obj 360 229 / 128;
#X obj 460 22 r opnum;
#X obj 460 102 + 69;
#X obj 319 21 inlet level;
#X connect 0 0 5 0;
#X connect 1 0 8 0;
#X connect 2 0 3 0;
#X connect 3 0 4 0;
#X connect 4 0 8 1;
#X connect 6 0 5 0;
#X connect 7 0 5 0;
#X connect 8 0 12 0;
#X connect 9 0 11 0;
#X connect 9 1 13 0;
#X connect 9 2 6 0;
#X connect 9 3 7 0;
#X connect 10 0 5 0;
#X connect 11 0 10 0;
#X connect 12 0 9 0;
#X connect 13 0 0 0;
#X connect 14 0 2 0;
#X connect 15 0 18 0;
#X connect 16 0 17 0;
#X connect 17 0 28 0;
#X connect 19 0 18 0;
#X connect 20 0 18 0;
#X connect 21 0 25 0;
#X connect 22 0 24 0;
#X connect 22 1 26 0;
#X connect 22 2 19 0;
#X connect 22 3 20 0;
#X connect 23 0 18 0;
#X connect 24 0 23 0;
#X connect 25 0 22 0;
#X connect 26 0 15 0;
#X connect 27 0 16 0;
#X connect 28 0 21 1;
#X connect 29 0 21 0;
#X restore 309 99 pd env_attack;
#X floatatom 309 74 5 1 1600 0 attack - -;
#X floatatom 309 125 5 1 1600 0 decay - -;
#N canvas 1280 565 640 400 env_decay 0;
#X msg 99 258 \$1 6;
#X obj 52 22 inlet val;
#X obj 193 50 - 1;
#X obj 193 77 * 8;
#X obj 52 302 ctlout;
#X msg 139 258 \$1 98;
#X msg 181 258 \$1 99;
#X obj 52 147 pack 0 0;
#X obj 52 197 unpack 0 0 0 0;
#X msg 51 258 \$1 38;
#X obj 51 230 % 127;
#X msg 52 172 \$1 \$1 \$2 0;
#X obj 93 230 / 128;
#X obj 193 104 + 70;
#X obj 193 23 r opnum;
#X msg 385 261 \$1 6;
#X obj 479 53 - 1;
#X obj 479 80 * 8;
#X obj 338 305 ctlout;
#X msg 425 261 \$1 98;
#X msg 467 261 \$1 99;
#X obj 338 150 pack 0 0;
#X obj 338 200 unpack 0 0 0 0;
#X msg 337 261 \$1 38;
#X obj 337 233 % 127;
#X msg 338 175 \$1 \$1 \$2 0;
#X obj 379 233 / 128;
#X obj 479 26 r opnum;
#X obj 479 107 + 71;
#X obj 338 25 inlet level;
#X connect 0 0 4 0;
#X connect 1 0 7 0;
#X connect 2 0 3 0;
#X connect 3 0 13 0;
#X connect 5 0 4 0;
#X connect 6 0 4 0;
#X connect 7 0 11 0;
#X connect 8 0 10 0;
#X connect 8 1 12 0;
#X connect 8 2 5 0;
#X connect 8 3 6 0;
#X connect 9 0 4 0;
#X connect 10 0 9 0;
#X connect 11 0 8 0;
#X connect 12 0 0 0;
#X connect 13 0 7 1;
#X connect 14 0 2 0;
#X connect 15 0 18 0;
#X connect 16 0 17 0;
#X connect 17 0 28 0;
#X connect 19 0 18 0;
#X connect 20 0 18 0;
#X connect 21 0 25 0;
#X connect 22 0 24 0;
#X connect 22 1 26 0;
#X connect 22 2 19 0;
#X connect 22 3 20 0;
#X connect 23 0 18 0;
#X connect 24 0 23 0;
#X connect 25 0 22 0;
#X connect 26 0 15 0;
#X connect 27 0 16 0;
#X connect 28 0 21 1;
#X connect 29 0 21 0;
#X restore 309 150 pd env_decay;
#X floatatom 309 176 5 1 1600 0 sustain - -;
#N canvas 1280 565 640 400 env_sustain 0;
#X msg 83 258 \$1 6;
#X obj 36 22 inlet val;
#X obj 177 50 - 1;
#X obj 177 77 * 8;
#X obj 36 302 ctlout;
#X msg 123 258 \$1 98;
#X msg 165 258 \$1 99;
#X obj 36 147 pack 0 0;
#X obj 36 197 unpack 0 0 0 0;
#X msg 35 258 \$1 38;
#X obj 35 230 % 127;
#X msg 36 172 \$1 \$1 \$2 0;
#X obj 77 230 / 128;
#X obj 177 104 + 72;
#X obj 177 23 r opnum;
#X msg 385 258 \$1 6;
#X obj 479 50 - 1;
#X obj 479 77 * 8;
#X obj 338 302 ctlout;
#X msg 425 258 \$1 98;
#X msg 467 258 \$1 99;
#X obj 338 147 pack 0 0;
#X obj 338 197 unpack 0 0 0 0;
#X msg 337 258 \$1 38;
#X obj 337 230 % 127;
#X msg 338 172 \$1 \$1 \$2 0;
#X obj 379 230 / 128;
#X obj 479 23 r opnum;
#X obj 338 22 inlet level;
#X obj 479 104 + 73;
#X connect 0 0 4 0;
#X connect 1 0 7 0;
#X connect 2 0 3 0;
#X connect 3 0 13 0;
#X connect 5 0 4 0;
#X connect 6 0 4 0;
#X connect 7 0 11 0;
#X connect 8 0 10 0;
#X connect 8 1 12 0;
#X connect 8 2 5 0;
#X connect 8 3 6 0;
#X connect 9 0 4 0;
#X connect 10 0 9 0;
#X connect 11 0 8 0;
#X connect 12 0 0 0;
#X connect 13 0 7 1;
#X connect 14 0 2 0;
#X connect 15 0 18 0;
#X connect 16 0 17 0;
#X connect 17 0 29 0;
#X connect 19 0 18 0;
#X connect 20 0 18 0;
#X connect 21 0 25 0;
#X connect 22 0 24 0;
#X connect 22 1 26 0;
#X connect 22 2 19 0;
#X connect 22 3 20 0;
#X connect 23 0 18 0;
#X connect 24 0 23 0;
#X connect 25 0 22 0;
#X connect 26 0 15 0;
#X connect 27 0 16 0;
#X connect 28 0 21 0;
#X connect 29 0 21 1;
#X restore 309 201 pd env_sustain;
#X floatatom 309 227 5 1 1600 0 release - -;
#N canvas 1280 565 640 400 env_release 0;
#X msg 77 270 \$1 6;
#X obj 30 34 inlet val;
#X obj 171 62 - 1;
#X obj 171 89 * 8;
#X obj 30 314 ctlout;
#X msg 117 270 \$1 98;
#X msg 159 270 \$1 99;
#X obj 30 159 pack 0 0;
#X obj 30 209 unpack 0 0 0 0;
#X msg 29 270 \$1 38;
#X obj 29 242 % 127;
#X msg 30 184 \$1 \$1 \$2 0;
#X obj 71 242 / 128;
#X obj 171 116 + 74;
#X obj 171 35 r opnum;
#X msg 410 268 \$1 6;
#X obj 504 60 - 1;
#X obj 504 87 * 8;
#X obj 363 312 ctlout;
#X msg 450 268 \$1 98;
#X msg 492 268 \$1 99;
#X obj 363 157 pack 0 0;
#X obj 363 207 unpack 0 0 0 0;
#X msg 362 268 \$1 38;
#X obj 362 240 % 127;
#X msg 363 182 \$1 \$1 \$2 0;
#X obj 404 240 / 128;
#X obj 504 33 r opnum;
#X obj 363 32 inlet level;
#X obj 504 114 + 75;
#X connect 0 0 4 0;
#X connect 1 0 7 0;
#X connect 2 0 3 0;
#X connect 3 0 13 0;
#X connect 5 0 4 0;
#X connect 6 0 4 0;
#X connect 7 0 11 0;
#X connect 8 0 10 0;
#X connect 8 1 12 0;
#X connect 8 2 5 0;
#X connect 8 3 6 0;
#X connect 9 0 4 0;
#X connect 10 0 9 0;
#X connect 11 0 8 0;
#X connect 12 0 0 0;
#X connect 13 0 7 1;
#X connect 14 0 2 0;
#X connect 15 0 18 0;
#X connect 16 0 17 0;
#X connect 17 0 29 0;
#X connect 19 0 18 0;
#X connect 20 0 18 0;
#X connect 21 0 25 0;
#X connect 22 0 24 0;
#X connect 22 1 26 0;
#X connect 22 2 19 0;
#X connect 22 3 20 0;
#X connect 23 0 18 0;
#X connect 24 0 23 0;
#X connect 25 0 22 0;
#X connect 26 0 15 0;
#X connect 27 0 16 0;
#X connect 28 0 21 0;
#X connect 29 0 21 1;
#X restore 309 252 pd env_release;
#X floatatom 397 74 5 0 100 1 level - -;
#X floatatom 397 124 5 0 100 1 level - -;
#X floatatom 397 174 5 0 100 1 level - -;
#X floatatom 400 227 5 0 100 1 level - -;
#X obj 347 41 nbx 3 20 1 6 0 0 opnum empty op_num 0 -8 0 10 -262130
-1 -1 1 256;
#X obj 71 149 noteout 1;
#X obj 71 81 bng 30 250 50 0 empty empty empty 17 7 0 10 -204786 -1
-1;
#X msg 71 111 60;
#X obj 71 130 makenote 80 500;
#X connect 0 0 1 0;
#X connect 3 0 5 0;
#X connect 6 0 8 0;
#X connect 7 0 9 0;
#X connect 13 0 12 0;
#X connect 14 0 15 0;
#X connect 16 0 17 0;
#X connect 18 0 19 0;
#X connect 20 0 12 1;
#X connect 21 0 15 1;
#X connect 22 0 17 1;
#X connect 23 0 19 1;
#X connect 26 0 27 0;
#X connect 27 0 28 0;
#X connect 28 0 25 0;
#X connect 28 1 25 1;
#X restore 700 754 pd preenProcess;
#X obj 21 86 soundfiler;
#N canvas 0 22 450 300 (subpatch) 0;
#X array \$0-sampleSource 347017 float 0;
#X coords 0 1 347016 -1 200 80 1 0 0;
#X restore 20 145 graph;
#N canvas 0 23 733 533 realtimetest 0;
#X obj 125 47 adc~ 1 2;
#X obj 25 21 tgl 30 0 empty empty empty 17 7 0 10 -261682 -1 -1 0 1
;
#X obj 99 161 barkSpecCentroid~ 1024 0.5;
#X obj 25 51 metro 100;
#X obj 99 180 nbx 7 32 -1e+37 1e+37 0 0 empty empty empty 0 -8 0 32
-262144 -1 -1 0 256;
#X obj 99 333 nbx 7 32 -1e+37 1e+37 0 0 empty empty empty 0 -8 0 32
-262144 -1 -1 0 256;
#X obj 99 314 barkSpecKurtosis~ 1024 0.5;
#X obj 25 70 s metro;
#X obj 25 100 r metro;
#X obj 564 59 openpanel;
#X obj 564 34 bng 25 250 50 0 empty empty empty 17 7 0 10 -262130 -1
-1;
#X msg 400 97 open /Volumes/FAT/samples/drum_loop/doinit4you.wav;
#X msg 399 59 start;
#X msg 447 59 stop;
#X obj 564 78 prepend set open;
#X obj 400 78 trigger a b;
#X obj 391 259 dac~;
#X obj 125 67 *~;
#X obj 150 67 tgl 19 0 empty empty empty 17 7 0 10 -262144 -1 -1 0
1;
#X obj 400 189 *~;
#X obj 425 189 tgl 19 0 empty empty empty 17 7 0 10 -261234 -1 -1 0
1;
#X obj 400 142 readsf~;
#X obj 400 208 throw~ analyse;
#X obj 125 86 throw~ analyse;
#X obj 100 141 catch~ analyse;
#X obj 99 497 bfcc~ 1024 0.5;
#X obj 596 213 bng 25 250 50 0 empty empty empty 17 7 0 10 -262130
-1 -1;
#N canvas 197 23 654 455 attackdetect 0;
#X obj 165 140 t b f;
#X floatatom 165 163 0 0 0 0 - - -;
#X obj 172 218 pack;
#X obj 172 241 route 0 1;
#X obj 172 264 > 55;
#X obj 222 264 < 45;
#X obj 172 287 sel 1;
#X obj 222 287 sel 1;
#X msg 136 298 1;
#X msg 136 276 0;
#X obj 165 195 != 0;
#X text 208 163 state -- 1 if waiting for low threshold \,;
#X text 245 178 0 if we've attained it and now want the;
#X obj 166 376 outlet;
#X obj 164 105 env~;
#X obj 168 54 inlet~;
#X connect 0 0 1 0;
#X connect 0 1 2 1;
#X connect 1 0 10 0;
#X connect 2 0 3 0;
#X connect 3 0 4 0;
#X connect 3 1 5 0;
#X connect 4 0 6 0;
#X connect 5 0 7 0;
#X connect 6 0 8 0;
#X connect 6 0 13 0;
#X connect 7 0 9 0;
#X connect 8 0 1 0;
#X connect 9 0 1 0;
#X connect 10 0 2 0;
#X connect 14 0 0 0;
#X connect 15 0 14 0;
#X restore 602 183 pd attackdetect;
#X obj 602 161 *~ 0.05;
#X obj 657 161 hsl 128 19 0 1 0 0 empty empty empty -2 -8 0 10 -262144
-1 -1 0 1;
#X obj 400 239 *~;
#X obj 425 239 tgl 19 0 empty empty empty 17 7 0 10 -261234 -1 -1 0
1;
#X obj 499 142 tgl 19 0 empty empty loop 22 9 0 10 -228856 -1 -1 0
1;
#X obj 453 142 spigot;
#X obj 99 212 barkSpecFlatness~ 1024 0.5;
#X obj 99 231 nbx 7 32 -1e+37 1e+37 0 0 empty empty empty 0 -8 0 32
-262144 -1 -1 0 256;
#X obj 99 263 barkSpecIrregularity~ 1024 0.5 0;
#X obj 99 282 nbx 7 32 -1e+37 1e+37 0 0 empty empty empty 0 -8 0 32
-262144 -1 -1 0 256;
#X obj 99 384 nbx 7 32 -1e+37 1e+37 0 0 empty empty empty 0 -8 0 32
-262144 -1 -1 0 256;
#X obj 99 365 barkSpecSkewness~ 1024 0.5;
#X obj 99 435 nbx 7 32 -1e+37 1e+37 0 0 empty empty empty 0 -8 0 32
-262144 -1 -1 0 256;
#X obj 99 416 barkSpecSpread~ 1024 0.5;
#X obj 139 573 list prepend 0;
#X obj 139 592 s \$0-bw-graph;
#N canvas 0 22 450 300 (subpatch) 0;
#X array \$0-bw-graph 250 float 0;
#X coords 0 1 249 -1 400 140 1 0 0;
#X restore 390 321 graph;
#N canvas 648 548 450 300 plot-delta 0;
#X obj 37 37 inlet;
#X obj 37 194 list prepend 0;
#X obj 160 115 list length;
#X obj 160 136 change;
#X obj 160 157 pack f \$0;
#X obj 37 77 t l l;
#X msg 160 179 \; \$2-fdelta-graph resize \$1 \;;
#X obj 37 217 s \$0-fdelta-graph;
#X connect 0 0 5 0;
#X connect 1 0 7 0;
#X connect 2 0 3 0;
#X connect 3 0 4 0;
#X connect 4 0 6 0;
#X connect 5 0 1 0;
#X connect 5 1 2 0;
#X restore 139 668 pd plot-delta;
#N canvas 0 22 450 300 (subpatch) 0;
#X array \$0-fdelta-graph 8 float 2;
#X coords 0 1.1 8 -1.1 200 140 1 0 0;
#X restore 590 511 graph;
#X obj 139 630 list split 6;
#X obj 139 649 featureDelta 6 diff;
#X obj 99 516 list split 2;
#X obj 139 554 binWrangler 5 48 0;
#X connect 0 0 17 0;
#X connect 1 0 3 0;
#X connect 2 0 4 0;
#X connect 3 0 7 0;
#X connect 6 0 5 0;
#X connect 8 0 2 0;
#X connect 8 0 6 0;
#X connect 8 0 25 0;
#X connect 8 0 34 0;
#X connect 8 0 36 0;
#X connect 8 0 39 0;
#X connect 8 0 41 0;
#X connect 9 0 14 0;
#X connect 10 0 9 0;
#X connect 11 0 21 0;
#X connect 12 0 15 0;
#X connect 13 0 21 0;
#X connect 14 0 11 0;
#X connect 15 0 21 0;
#X connect 15 1 11 0;
#X connect 17 0 23 0;
#X connect 18 0 17 1;
#X connect 19 0 22 0;
#X connect 20 0 19 1;
#X connect 21 0 19 0;
#X connect 21 0 28 0;
#X connect 21 0 30 0;
#X connect 21 1 33 0;
#X connect 24 0 2 0;
#X connect 24 0 6 0;
#X connect 24 0 25 0;
#X connect 24 0 34 0;
#X connect 24 0 36 0;
#X connect 24 0 39 0;
#X connect 24 0 41 0;
#X connect 25 0 49 0;
#X connect 27 0 26 0;
#X connect 28 0 27 0;
#X connect 29 0 28 1;
#X connect 30 0 16 0;
#X connect 30 0 16 1;
#X connect 31 0 30 1;
#X connect 32 0 33 1;
#X connect 33 0 12 0;
#X connect 34 0 35 0;
#X connect 36 0 37 0;
#X connect 39 0 38 0;
#X connect 41 0 40 0;
#X connect 42 0 43 0;
#X connect 47 0 48 0;
#X connect 48 0 45 0;
#X connect 49 1 47 0;
#X connect 49 1 50 0;
#X connect 50 0 42 0;
#X restore 700 788 pd realtimetest;
#X obj 20 48 openpanel;
#X obj 20 23 bng 25 250 50 0 empty empty set_source 28 13 0 10 -262130
-1 -1;
#X msg 49 479 analyze \$1 1024;
#X obj 49 460 r \$0-scrub-bar;
#N canvas 0 81 450 300 plotting 0;
#X obj 61 195 list prepend 0;
#X obj 61 91 t l l;
#X obj 185 138 list length;
#X obj 185 160 change;
#X obj 185 182 pack f \$0;
#X msg 185 203 \; \$2-bfcc-graph resize \$1 \;;
#X obj 61 216 s \$0-bfcc-graph;
#X obj 61 51 inlet;
#X connect 0 0 6 0;
#X connect 1 0 0 0;
#X connect 1 1 2 0;
#X connect 2 0 3 0;
#X connect 3 0 4 0;
#X connect 4 0 5 0;
#X connect 7 0 1 0;
#X restore 19 650 pd plotting;
#N canvas 0 50 450 300 (subpatch) 0;
#X array \$0-bfcc-graph 50 float 0;
#X coords 0 1 49 -1 200 140 1 0 0;
#X restore 22 252 graph;
#X obj 22 419 hsl 800 25 0 128000 0 0 \$0-scrub-bar empty Scrub-bar
-2 -8 0 12 -162280 -257985 -1 0 1;
#N canvas 0 50 450 300 (subpatch) 0;
#X array \$0-waveform 1024 float 0;
#X coords 0 1 1023 -1 200 140 1 0 0;
#X restore 234 251 graph;
#N canvas 722 238 304 333 waveform 0;
#X obj 46 61 inlet;
#X obj 46 82 t f f;
#X obj 91 131 + 1023;
#X obj 46 164 pack f f \$0;
#X obj 46 241 tabletool \$0-waveform;
#X msg 46 200 copy_range 0 \$3-sampleSource \$1 \$2;
#X connect 0 0 1 0;
#X connect 1 0 3 0;
#X connect 1 1 2 0;
#X connect 2 0 3 1;
#X connect 3 0 5 0;
#X connect 5 0 4 0;
#X restore 191 479 pd waveform;
#X obj 191 460 r \$0-scrub-bar;
#X obj 19 631 bfcc \$0-sampleSource 0.5;
#X obj 120 86 f \$0;
#X obj 87 48 pack s \$0;
#X msg 21 67 read -resize \$1 \$2-sampleSource;
#X obj 95 86 t b;
#X msg 150 86 \; \$1-sampleSource normalize \;;
#X obj 19 517 waveSlope \$0-sampleSource;
#X obj 19 536 abs;
#X obj 19 574 change;
#X obj 19 593 spigot;
#X obj 19 498 t a a;
#N canvas 0 22 450 300 (subpatch) 0;
#X array \$0-sampleTest 347017 float 0;
#X coords 0 1 347016 -1 200 80 1 0 0;
#X restore 609 149 graph;
#X obj 530 89 soundfiler;
#X obj 529 51 openpanel;
#X obj 529 26 bng 25 250 50 0 empty empty set_test 28 13 0 10 -262130
-1 -1;
#X obj 629 89 f \$0;
#X obj 596 51 pack s \$0;
#X obj 604 89 t b;
#X msg 530 70 read -resize \$1 \$2-sampleTest;
#X msg 659 89 \; \$1-sampleTest normalize \;;
#N canvas 0 22 450 300 (subpatch) 0;
#X array \$0-fdelta-graph 8 float 2;
#X coords 0 1.1 8 -1.1 200 140 1 0 0;
#X restore 456 250 graph;
#X obj 211 631 bfcc \$0-sampleTest 0.5;
#X obj 19 612 t a a;
#X obj 118 650 list split 8;
#N canvas 648 548 450 300 plot-delta 0;
#X obj 37 37 inlet;
#X obj 37 194 list prepend 0;
#X obj 160 115 list length;
#X obj 160 136 change;
#X obj 160 157 pack f \$0;
#X obj 37 77 t l l;
#X msg 160 179 \; \$2-fdelta-graph resize \$1 \;;
#X obj 37 217 s \$0-fdelta-graph;
#X connect 0 0 5 0;
#X connect 1 0 7 0;
#X connect 2 0 3 0;
#X connect 3 0 4 0;
#X connect 4 0 6 0;
#X connect 5 0 1 0;
#X connect 5 1 2 0;
#X restore 89 688 pd plot-delta;
#X obj 89 741 list-accum;
#X obj 89 760 nbx 7 32 -1e+37 1e+37 0 0 empty empty score -44 17 0
14 -4034 -257985 -99865 0 256;
#X obj 211 650 list split 8;
#X obj 19 464 bng 25 250 50 0 empty empty empty 28 13 0 10 -262130
-1 -1;
#X obj 89 669 featureDelta 8;
#X msg 89 602 direction pos;
#X obj 89 583 loadbang;
#X obj 19 555 > 0.2;
#X obj 6 105 s \$0-sampleSourceLen;
#X obj 446 789 declare -lib timbreID/timbreIDLib;
#X obj 365 470 bng 40 250 50 0 \$0-analyse empty analyse 42 20 0 10
-4032 -1 -1;
#N canvas 1450 623 450 300 autoscrub 1;
#X obj 29 213 s \$0-scrub-bar;
#X obj 170 59 samplerate~;
#X obj 29 167 pack 0 0;
#X obj 152 14 r \$0-sampleSourceLen;
#X obj 152 82 /;
#X obj 170 36 loadbang;
#X obj 258 44 bng 15 250 50 0 empty empty empty 17 7 0 10 -262144 -1
-1;
#X msg 61 122 0;
#X obj 29 99 t b b;
#X msg 29 144 128000;
#X obj 29 76 r \$0-analyse;
#X obj 29 190 line 0 1;
#X obj 152 104 * 100;
#X connect 1 0 4 1;
#X connect 2 0 11 0;
#X connect 3 0 4 0;
#X connect 4 0 12 0;
#X connect 5 0 1 0;
#X connect 6 0 1 0;
#X connect 7 0 11 0;
#X connect 8 0 9 0;
#X connect 8 1 7 0;
#X connect 9 0 2 0;
#X connect 10 0 8 0;
#X connect 11 0 0 0;
#X connect 12 0 2 1;
#X restore 600 754 pd autoscrub;
#X obj 233 778 print;
#X obj 61 555 hsl 64 19 0.02 0.3 1 0 empty empty threshold 70 9 0 10
-262144 -1 -1 1500 1;
#X connect 1 0 47 0;
#X connect 1 1 18 0;
#X connect 4 0 16 0;
#X connect 5 0 4 0;
#X connect 6 0 24 0;
#X connect 7 0 6 0;
#X connect 13 0 12 0;
#X connect 14 0 8 0;
#X connect 14 0 37 0;
#X connect 15 0 19 0;
#X connect 16 0 17 0;
#X connect 17 0 1 0;
#X connect 18 0 15 0;
#X connect 20 0 21 0;
#X connect 21 0 46 0;
#X connect 22 0 23 1;
#X connect 23 0 36 0;
#X connect 24 0 23 0;
#X connect 24 1 20 0;
#X connect 26 1 31 0;
#X connect 27 0 30 0;
#X connect 28 0 27 0;
#X connect 29 0 33 0;
#X connect 30 0 32 0;
#X connect 31 0 29 0;
#X connect 32 0 26 0;
#X connect 35 0 41 0;
#X connect 36 0 14 0;
#X connect 36 1 35 0;
#X connect 37 0 43 0;
#X connect 39 0 40 0;
#X connect 41 0 43 1;
#X connect 42 0 24 0;
#X connect 43 0 38 0;
#X connect 43 0 39 0;
#X connect 43 0 51 0;
#X connect 44 0 43 0;
#X connect 45 0 44 0;
#X connect 46 0 22 0;
#X connect 52 0 46 1;
