#N canvas 676 80 1149 825 12;
#X declare -lib timbreID/timbreIDLib;
#N canvas 23 474 685 491 preenProcess 0;
#X obj 65 250 noteout 1;
#X obj 33 26 inlet sendNote;
#X obj 33 54 t b b;
#X obj 33 282 outlet;
#X obj 65 222 makenote 80 250;
#X obj 115 137 r \$0-basenote;
#X obj 65 164 f;
#X msg 81 107 40;
#X obj 202 26 inlet test;
#X obj 81 79 loadbang;
#N canvas 93 540 640 400 env_attack 0;
#X msg 74 286 \$1 6;
#X obj 27 20 inlet val;
#X obj 84 148 + 68;
#X obj 27 330 ctlout;
#X msg 114 286 \$1 98;
#X msg 156 286 \$1 99;
#X obj 27 175 pack 0 0;
#X obj 27 225 unpack 0 0 0 0;
#X msg 26 286 \$1 38;
#X obj 26 258 % 127;
#X msg 27 200 \$1 \$1 \$2 0;
#X obj 68 258 / 128;
#X msg 366 256 \$1 6;
#X obj 460 49 - 1;
#X obj 460 76 * 8;
#X obj 319 301 ctlout;
#X msg 406 256 \$1 98;
#X msg 448 256 \$1 99;
#X obj 319 146 pack 0 0;
#X obj 319 196 unpack 0 0 0 0;
#X msg 318 256 \$1 38;
#X obj 318 229 % 127;
#X msg 319 171 \$1 \$1 \$2 0;
#X obj 360 229 / 128;
#X obj 372 116 + 69;
#X obj 319 21 inlet level;
#X obj 27 50 / 1600;
#X obj 27 82 *;
#X obj 27 144 * 1600;
#X obj 460 22 inlet opnum;
#X obj 27 114 *;
#X connect 0 0 3 0;
#X connect 1 0 26 0;
#X connect 2 0 6 1;
#X connect 4 0 3 0;
#X connect 5 0 3 0;
#X connect 6 0 10 0;
#X connect 7 0 9 0;
#X connect 7 1 11 0;
#X connect 7 2 4 0;
#X connect 7 3 5 0;
#X connect 8 0 3 0;
#X connect 9 0 8 0;
#X connect 10 0 7 0;
#X connect 11 0 0 0;
#X connect 12 0 15 0;
#X connect 13 0 14 0;
#X connect 14 0 24 0;
#X connect 14 0 2 0;
#X connect 16 0 15 0;
#X connect 17 0 15 0;
#X connect 18 0 22 0;
#X connect 19 0 21 0;
#X connect 19 1 23 0;
#X connect 19 2 16 0;
#X connect 19 3 17 0;
#X connect 20 0 15 0;
#X connect 21 0 20 0;
#X connect 22 0 19 0;
#X connect 23 0 12 0;
#X connect 24 0 18 1;
#X connect 25 0 18 0;
#X connect 26 0 27 0;
#X connect 26 0 27 1;
#X connect 27 0 30 0;
#X connect 27 0 30 1;
#X connect 28 0 6 0;
#X connect 29 0 13 0;
#X connect 30 0 28 0;
#X restore 294 237 pd env_attack;
#X floatatom 294 213 5 1 1600 0 attack - -;
#X floatatom 296 278 5 1 1600 0 decay - -;
#N canvas 1280 565 640 400 env_decay 0;
#X msg 99 258 \$1 6;
#X obj 52 22 inlet val;
#X obj 52 302 ctlout;
#X msg 139 258 \$1 98;
#X msg 181 258 \$1 99;
#X obj 52 147 pack 0 0;
#X obj 52 197 unpack 0 0 0 0;
#X msg 51 258 \$1 38;
#X obj 51 230 % 127;
#X msg 52 172 \$1 \$1 \$2 0;
#X obj 93 230 / 128;
#X obj 104 121 + 70;
#X msg 385 261 \$1 6;
#X obj 479 53 - 1;
#X obj 479 80 * 8;
#X obj 338 305 ctlout;
#X msg 425 261 \$1 98;
#X msg 467 261 \$1 99;
#X obj 338 150 pack 0 0;
#X obj 338 200 unpack 0 0 0 0;
#X msg 337 261 \$1 38;
#X obj 337 233 % 127;
#X msg 338 175 \$1 \$1 \$2 0;
#X obj 379 233 / 128;
#X obj 479 107 + 71;
#X obj 338 25 inlet level;
#X obj 479 26 inlet opnum;
#X connect 0 0 2 0;
#X connect 1 0 5 0;
#X connect 3 0 2 0;
#X connect 4 0 2 0;
#X connect 5 0 9 0;
#X connect 6 0 8 0;
#X connect 6 1 10 0;
#X connect 6 2 3 0;
#X connect 6 3 4 0;
#X connect 7 0 2 0;
#X connect 8 0 7 0;
#X connect 9 0 6 0;
#X connect 10 0 0 0;
#X connect 11 0 5 1;
#X connect 12 0 15 0;
#X connect 13 0 14 0;
#X connect 14 0 24 0;
#X connect 14 0 11 0;
#X connect 16 0 15 0;
#X connect 17 0 15 0;
#X connect 18 0 22 0;
#X connect 19 0 21 0;
#X connect 19 1 23 0;
#X connect 19 2 16 0;
#X connect 19 3 17 0;
#X connect 20 0 15 0;
#X connect 21 0 20 0;
#X connect 22 0 19 0;
#X connect 23 0 12 0;
#X connect 24 0 18 1;
#X connect 25 0 18 0;
#X connect 26 0 13 0;
#X restore 296 302 pd env_decay;
#X floatatom 296 338 5 1 1600 0 sustain - -;
#N canvas 1280 565 640 400 env_sustain 0;
#X msg 83 298 \$1 6;
#X obj 36 22 inlet val;
#X obj 36 342 ctlout;
#X msg 123 298 \$1 98;
#X msg 165 298 \$1 99;
#X obj 36 187 pack 0 0;
#X obj 36 237 unpack 0 0 0 0;
#X msg 35 298 \$1 38;
#X obj 35 270 % 127;
#X msg 36 212 \$1 \$1 \$2 0;
#X obj 77 270 / 128;
#X obj 87 159 + 72;
#X msg 385 298 \$1 6;
#X obj 479 50 - 1;
#X obj 479 77 * 8;
#X obj 338 342 ctlout;
#X msg 425 298 \$1 98;
#X msg 467 298 \$1 99;
#X obj 338 187 pack 0 0;
#X obj 338 237 unpack 0 0 0 0;
#X msg 337 298 \$1 38;
#X obj 337 270 % 127;
#X msg 338 212 \$1 \$1 \$2 0;
#X obj 379 270 / 128;
#X obj 338 22 inlet level;
#X obj 391 161 + 73;
#X obj 479 23 inlet opnum;
#X obj 26 57 / 1600;
#X obj 26 89 *;
#X obj 26 121 * 1600;
#X connect 0 0 2 0;
#X connect 1 0 27 0;
#X connect 3 0 2 0;
#X connect 4 0 2 0;
#X connect 5 0 9 0;
#X connect 6 0 8 0;
#X connect 6 1 10 0;
#X connect 6 2 3 0;
#X connect 6 3 4 0;
#X connect 7 0 2 0;
#X connect 8 0 7 0;
#X connect 9 0 6 0;
#X connect 10 0 0 0;
#X connect 11 0 5 1;
#X connect 12 0 15 0;
#X connect 13 0 14 0;
#X connect 14 0 25 0;
#X connect 14 0 11 0;
#X connect 16 0 15 0;
#X connect 17 0 15 0;
#X connect 18 0 22 0;
#X connect 19 0 21 0;
#X connect 19 1 23 0;
#X connect 19 2 16 0;
#X connect 19 3 17 0;
#X connect 20 0 15 0;
#X connect 21 0 20 0;
#X connect 22 0 19 0;
#X connect 23 0 12 0;
#X connect 24 0 18 0;
#X connect 25 0 18 1;
#X connect 26 0 13 0;
#X connect 27 0 28 0;
#X connect 27 0 28 1;
#X connect 28 0 29 0;
#X connect 29 0 5 0;
#X restore 296 362 pd env_sustain;
#X floatatom 297 398 5 1 1600 0 release - -;
#N canvas 1280 565 640 400 env_release 0;
#X msg 77 270 \$1 6;
#X obj 30 34 inlet val;
#X obj 30 314 ctlout;
#X msg 117 270 \$1 98;
#X msg 159 270 \$1 99;
#X obj 30 159 pack 0 0;
#X obj 30 209 unpack 0 0 0 0;
#X msg 29 270 \$1 38;
#X obj 29 242 % 127;
#X msg 30 184 \$1 \$1 \$2 0;
#X obj 71 242 / 128;
#X obj 171 116 + 74;
#X msg 410 268 \$1 6;
#X obj 504 60 - 1;
#X obj 504 87 * 8;
#X obj 363 312 ctlout;
#X msg 450 268 \$1 98;
#X msg 492 268 \$1 99;
#X obj 363 157 pack 0 0;
#X obj 363 207 unpack 0 0 0 0;
#X msg 362 268 \$1 38;
#X obj 362 240 % 127;
#X msg 363 182 \$1 \$1 \$2 0;
#X obj 404 240 / 128;
#X obj 363 32 inlet level;
#X obj 504 114 + 75;
#X obj 503 34 inlet opnum;
#X connect 0 0 2 0;
#X connect 1 0 5 0;
#X connect 3 0 2 0;
#X connect 4 0 2 0;
#X connect 5 0 9 0;
#X connect 6 0 8 0;
#X connect 6 1 10 0;
#X connect 6 2 3 0;
#X connect 6 3 4 0;
#X connect 7 0 2 0;
#X connect 8 0 7 0;
#X connect 9 0 6 0;
#X connect 10 0 0 0;
#X connect 11 0 5 1;
#X connect 12 0 15 0;
#X connect 13 0 14 0;
#X connect 14 0 25 0;
#X connect 14 0 11 0;
#X connect 16 0 15 0;
#X connect 17 0 15 0;
#X connect 18 0 22 0;
#X connect 19 0 21 0;
#X connect 19 1 23 0;
#X connect 19 2 16 0;
#X connect 19 3 17 0;
#X connect 20 0 15 0;
#X connect 21 0 20 0;
#X connect 22 0 19 0;
#X connect 23 0 12 0;
#X connect 24 0 18 0;
#X connect 25 0 18 1;
#X connect 26 0 13 0;
#X restore 297 422 pd env_release;
#X floatatom 338 213 5 0 100 1 level - -;
#X floatatom 336 278 5 0 100 1 level - -;
#X floatatom 343 338 5 0 100 1 level - -;
#X floatatom 344 398 5 0 100 1 level - -;
#N canvas 709 235 473 418 oscFreq 0;
#X msg 74 256 \$1 6;
#X obj 27 20 inlet val;
#X obj 168 48 - 1;
#X obj 27 300 ctlout;
#X msg 114 256 \$1 98;
#X msg 156 256 \$1 99;
#X obj 27 145 pack 0 0;
#X obj 27 195 unpack 0 0 0 0;
#X msg 26 256 \$1 38;
#X obj 26 228 % 127;
#X msg 27 170 \$1 \$1 \$2 0;
#X obj 68 228 / 128;
#X obj 168 101 + 46;
#X obj 168 74 * 4;
#X obj 168 21 inlet opnum;
#X connect 0 0 3 0;
#X connect 1 0 6 0;
#X connect 2 0 13 0;
#X connect 4 0 3 0;
#X connect 5 0 3 0;
#X connect 6 0 10 0;
#X connect 7 0 9 0;
#X connect 7 1 11 0;
#X connect 7 2 4 0;
#X connect 7 3 5 0;
#X connect 8 0 3 0;
#X connect 9 0 8 0;
#X connect 10 0 7 0;
#X connect 11 0 0 0;
#X connect 12 0 6 1;
#X connect 13 0 12 0;
#X connect 14 0 2 0;
#X restore 483 423 pd oscFreq;
#X floatatom 483 399 5 1 1600 0 freq - -;
#X floatatom 533 296 5 1 1600 0 fine_tune - -;
#N canvas 709 235 473 418 oscFineTune 0;
#X msg 74 256 \$1 6;
#X obj 27 20 inlet val;
#X obj 168 48 - 1;
#X obj 27 300 ctlout;
#X msg 114 256 \$1 98;
#X msg 156 256 \$1 99;
#X obj 27 145 pack 0 0;
#X obj 27 195 unpack 0 0 0 0;
#X msg 26 256 \$1 38;
#X obj 26 228 % 127;
#X msg 27 170 \$1 \$1 \$2 0;
#X obj 68 228 / 128;
#X obj 168 74 * 4;
#X obj 168 101 + 47;
#X obj 167 21 inlet opnum;
#X connect 0 0 3 0;
#X connect 1 0 6 0;
#X connect 2 0 12 0;
#X connect 4 0 3 0;
#X connect 5 0 3 0;
#X connect 6 0 10 0;
#X connect 7 0 9 0;
#X connect 7 1 11 0;
#X connect 7 2 4 0;
#X connect 7 3 5 0;
#X connect 8 0 3 0;
#X connect 9 0 8 0;
#X connect 10 0 7 0;
#X connect 11 0 0 0;
#X connect 12 0 13 0;
#X connect 13 0 6 1;
#X connect 14 0 2 0;
#X restore 533 320 pd oscFineTune;
#X floatatom 508 348 5 1 1600 0 IM - -;
#N canvas 709 235 473 418 oscIM 0;
#X msg 74 256 \$1 6;
#X obj 27 20 inlet val;
#X obj 168 48 - 1;
#X obj 27 300 ctlout;
#X msg 114 256 \$1 98;
#X msg 156 256 \$1 99;
#X obj 27 145 pack 0 0;
#X obj 27 195 unpack 0 0 0 0;
#X msg 26 256 \$1 38;
#X obj 26 228 % 127;
#X msg 27 170 \$1 \$1 \$2 0;
#X obj 68 228 / 128;
#X obj 168 74 * 2;
#X obj 168 101 + 4;
#X obj 168 21 inlet opnum;
#X connect 0 0 3 0;
#X connect 1 0 6 0;
#X connect 2 0 12 0;
#X connect 4 0 3 0;
#X connect 5 0 3 0;
#X connect 6 0 10 0;
#X connect 7 0 9 0;
#X connect 7 1 11 0;
#X connect 7 2 4 0;
#X connect 7 3 5 0;
#X connect 8 0 3 0;
#X connect 9 0 8 0;
#X connect 10 0 7 0;
#X connect 11 0 0 0;
#X connect 12 0 13 0;
#X connect 13 0 6 1;
#X connect 14 0 2 0;
#X restore 508 372 pd oscIM;
#X floatatom 546 241 5 1 1600 0 shape - -;
#N canvas 709 235 473 418 oscShape 0;
#X msg 74 256 \$1 6;
#X obj 27 20 inlet val;
#X obj 168 48 - 1;
#X obj 27 300 ctlout;
#X msg 114 256 \$1 98;
#X msg 156 256 \$1 99;
#X obj 27 145 pack 0 0;
#X obj 27 195 unpack 0 0 0 0;
#X msg 26 256 \$1 38;
#X obj 26 228 % 127;
#X msg 27 170 \$1 \$1 \$2 0;
#X obj 68 228 / 128;
#X obj 168 101 + 44;
#X obj 168 74 * 4;
#X obj 168 21 inlet opnum;
#X connect 0 0 3 0;
#X connect 1 0 6 0;
#X connect 2 0 13 0;
#X connect 4 0 3 0;
#X connect 5 0 3 0;
#X connect 6 0 10 0;
#X connect 7 0 9 0;
#X connect 7 1 11 0;
#X connect 7 2 4 0;
#X connect 7 3 5 0;
#X connect 8 0 3 0;
#X connect 9 0 8 0;
#X connect 10 0 7 0;
#X connect 11 0 0 0;
#X connect 12 0 6 1;
#X connect 13 0 12 0;
#X connect 14 0 2 0;
#X restore 546 265 pd oscShape;
#X obj 321 142 unpack 0 0 0 0 0 0 0 0 0 0 0 0 0 0;
#X obj 321 26 r \$0-playPreenPatch;
#X obj 321 54 t a b;
#X msg 353 86 zlclear;
#X obj 321 114 zl iter 14;
#X obj 123 282 outlet;
#X obj 116 165 r \$0-sampleSourceMilli;
#X floatatom 130 105 5 0 0 0 - - -;
#X obj 163 70 bng 33 250 50 0 empty empty empty 17 7 0 10 -262144 -1
-1;
#X obj 125 194 * 0.5;
#X connect 1 0 2 0;
#X connect 2 0 3 0;
#X connect 2 1 6 0;
#X connect 4 0 0 0;
#X connect 4 1 0 1;
#X connect 5 0 6 1;
#X connect 6 0 4 0;
#X connect 7 0 6 0;
#X connect 8 0 6 0;
#X connect 9 0 7 0;
#X connect 11 0 10 0;
#X connect 12 0 13 0;
#X connect 14 0 15 0;
#X connect 16 0 17 0;
#X connect 18 0 10 1;
#X connect 19 0 13 1;
#X connect 20 0 15 1;
#X connect 21 0 17 1;
#X connect 23 0 22 0;
#X connect 24 0 25 0;
#X connect 26 0 27 0;
#X connect 28 0 29 0;
#X connect 30 2 11 0;
#X connect 30 3 18 0;
#X connect 30 4 12 0;
#X connect 30 5 19 0;
#X connect 30 6 14 0;
#X connect 30 7 20 0;
#X connect 30 8 16 0;
#X connect 30 9 23 0;
#X connect 30 10 26 0;
#X connect 30 11 24 0;
#X connect 30 12 28 0;
#X connect 30 13 29 1;
#X connect 30 13 25 1;
#X connect 30 13 27 1;
#X connect 30 13 22 1;
#X connect 30 13 10 2;
#X connect 30 13 13 2;
#X connect 30 13 15 2;
#X connect 30 13 17 2;
#X connect 31 0 32 0;
#X connect 32 0 34 0;
#X connect 32 1 33 0;
#X connect 33 0 34 0;
#X connect 34 0 30 0;
#X connect 34 0 35 0;
#X connect 36 0 39 0;
#X connect 37 0 6 0;
#X connect 38 0 37 0;
#X connect 39 0 4 2;
#X restore 658 604 pd preenProcess;
#N canvas 0 22 450 300 (subpatch) 0;
#X array \$0-sampleSource 6866 float 0;
#X coords 0 1 6865 -1 200 80 1 0 0;
#X restore 695 256 graph;
#X obj 464 41 bng 25 250 50 0 empty empty set_source 28 13 0 10 -262130
-1 -1;
#N canvas 0 50 450 300 (subpatch) 0;
#X array \$0-bfcc-graph 50 float 0;
#X coords 0 1 49 -1 200 140 1 0 0;
#X restore 32 310 graph;
#X obj 59 491 hsl 800 25 0 6861 0 0 \$0-scrub-bar \$0-scrub-bar-init
Scrub-bar -2 -8 0 12 -162280 -257985 -1 0 1;
#N canvas 0 50 450 300 (subpatch) 0;
#X array \$0-waveform 1024 float 0;
#X coords 0 1 1023 -1 200 140 1 0 0;
#X restore 254 310 graph;
#N canvas 0 22 450 300 (subpatch) 0;
#X array \$0-sampledSynth 6866 float 0;
#X coords 0 1 6865 -1 200 80 1 0 0;
#X restore 695 368 graph;
#N canvas 0 22 450 300 (subpatch) 0;
#X array \$0-fdelta-graph 12 float 2;
#X coords 0 1.1 12 -1.1 200 140 1 0 0;
#X restore 476 310 graph;
#X obj 975 393 nbx 7 32 0 1e+37 0 0 \$0-score \$0-score-in score -48
17 0 14 -262144 -13381 -13381 0.399514 256;
#X obj 760 685 bng 40 250 50 0 \$0-analyse \$0-analyse-trig analyse
46 20 0 10 -204800 -1 -1;
#X obj 978 276 hsl 64 19 0.02 0.5 1 0 empty \$0-threshold-init threshold
70 9 0 10 -261682 -1 -1 4943 1;
#N canvas 125 142 820 782 analyser 0;
#X obj 401 85 inlet threshold;
#X obj 364 749 outlet score;
#X msg 308 52 analyze \$1 1024;
#X obj 308 22 r \$0-scrub-bar;
#N canvas 0 81 450 300 plotting 0;
#X obj 61 195 list prepend 0;
#X obj 61 91 t l l;
#X obj 185 138 list length;
#X obj 185 160 change;
#X obj 185 182 pack f \$0;
#X msg 185 203 \; \$2-bfcc-graph resize \$1 \;;
#X obj 61 216 s \$0-bfcc-graph;
#X obj 61 51 inlet;
#X connect 0 0 6 0;
#X connect 1 0 0 0;
#X connect 1 1 2 0;
#X connect 2 0 3 0;
#X connect 3 0 4 0;
#X connect 4 0 5 0;
#X connect 7 0 1 0;
#X restore 192 431 pd plotting;
#X obj 267 305 bfcc \$0-sampleSource 0.5;
#X obj 371 116 waveSlope \$0-sampleSource;
#X obj 371 146 abs;
#X obj 371 200 change;
#X obj 332 232 spigot;
#X obj 267 268 t a a;
#N canvas 648 548 450 300 plot-delta 0;
#X obj 37 37 inlet;
#X obj 37 194 list prepend 0;
#X obj 160 115 list length;
#X obj 160 136 change;
#X obj 160 157 pack f \$0;
#X obj 37 77 t l l;
#X msg 160 179 \; \$2-fdelta-graph resize \$1 \;;
#X obj 37 217 s \$0-fdelta-graph;
#X connect 0 0 5 0;
#X connect 1 0 7 0;
#X connect 2 0 3 0;
#X connect 3 0 4 0;
#X connect 4 0 6 0;
#X connect 5 0 1 0;
#X connect 5 1 2 0;
#X restore 388 479 pd plot-delta;
#X obj 364 545 list-accum;
#X obj 241 22 bng 25 250 50 0 empty empty empty 28 13 0 10 -262130
-1 -1;
#X msg 67 254 direction pos;
#X obj 67 224 loadbang;
#X obj 371 176 > 0.2;
#X obj 576 747 outlet nbpoints;
#X obj 576 577 i;
#X obj 601 577 + 1;
#X obj 526 527 t b;
#X msg 576 527 1;
#X obj 331 89 t a a a;
#X obj 640 458 sel 0;
#X obj 600 431 unpack s 0 0;
#X obj 602 121 loadbang;
#X obj 601 181 s \$0-threshold-init;
#X msg 603 148 0.25;
#X obj 477 306 bfcc \$0-sampledSynth 0.5;
#X obj 188 682 i;
#X obj 213 682 + 1;
#X obj 139 655 t a b;
#X obj 212 717 % 512;
#X obj 144 524 r \$0-pop-init;
#X msg 144 554 const 0;
#X obj 364 601 tID_mean;
#X obj 144 584 s \$0-score-history;
#X obj 40 746 tabwrite \$0-score-history;
#X floatatom 233 747 5 0 0 0 - - -;
#X obj 363 572 cyclone/thresh 100;
#X obj 320 372 list split 12;
#X obj 465 373 list split 12;
#X obj 364 431 featureDelta 12;
#X connect 0 0 16 1;
#X connect 2 0 22 0;
#X connect 2 0 10 0;
#X connect 3 0 2 0;
#X connect 5 0 4 0;
#X connect 5 0 40 0;
#X connect 6 0 7 0;
#X connect 7 0 16 0;
#X connect 8 0 9 1;
#X connect 10 0 5 0;
#X connect 10 1 28 0;
#X connect 12 0 20 0;
#X connect 12 0 39 0;
#X connect 13 0 22 0;
#X connect 14 0 42 0;
#X connect 15 0 14 0;
#X connect 16 0 8 0;
#X connect 18 0 19 0;
#X connect 18 0 17 0;
#X connect 19 0 18 1;
#X connect 20 0 18 0;
#X connect 21 0 18 0;
#X connect 22 0 9 0;
#X connect 22 1 6 0;
#X connect 22 2 24 0;
#X connect 23 0 21 0;
#X connect 24 1 23 0;
#X connect 25 0 27 0;
#X connect 27 0 26 0;
#X connect 28 0 41 0;
#X connect 29 0 30 0;
#X connect 29 0 32 0;
#X connect 30 0 29 1;
#X connect 31 0 37 0;
#X connect 31 1 29 0;
#X connect 32 0 37 1;
#X connect 32 0 38 0;
#X connect 33 0 34 0;
#X connect 34 0 36 0;
#X connect 35 0 1 0;
#X connect 35 0 31 0;
#X connect 39 0 35 0;
#X connect 40 0 42 0;
#X connect 41 0 42 1;
#X connect 42 0 11 0;
#X connect 42 0 12 0;
#X restore 975 327 pd analyser;
#X obj 975 302 nbx 5 18 -1e+37 1e+37 0 0 empty empty empty 0 -8 0 10
-262144 -1 -1 0.25 256;
#N canvas 328 23 945 662 setSource 0;
#X obj 68 148 soundfiler;
#X obj 68 58 openpanel;
#X obj 438 276 f \$0;
#X obj 68 88 pack s \$0;
#X msg 68 118 read -resize \$1 \$2-sampleSource;
#X obj 438 246 t b;
#X msg 438 306 \; \$1-sampleSource normalize \;;
#X obj 36 246 s \$0-sampleSourceLen;
#X obj 68 28 inlet;
#X obj 157 407 samplerate~;
#X obj 139 460 /;
#X obj 157 377 loadbang;
#X obj 133 377 bng 15 250 50 0 empty empty empty 17 7 0 10 -262144
-1 -1;
#X obj 139 520 s \$0-sampleSourceMilli;
#X obj 139 490 * 1000;
#X obj 280 28 inlet filepath;
#X obj 745 291 readsf~;
#X obj 745 159 unpack s;
#X obj 745 225 t b a;
#X msg 745 258 1;
#X obj 719 378 dac~;
#X obj 745 192 prepend open;
#X floatatom 803 421 10 0 0 1 ms - -;
#X obj 791 388 attackTime~ 2048;
#N canvas 713 346 570 417 onsets 0;
#X obj 56 53 inlet~;
#X obj 176 347 outlet;
#X obj 3 4 cnv 10 400 10 empty empty empty 20 12 0 14 -233017 -66577
0;
#X obj 3 4 cnv 10 10 400 empty empty empty 20 12 0 14 -233017 -66577
0;
#X obj 208 193 bng 15 250 50 0 empty empty empty 17 7 0 10 -262144
-1 -1;
#X obj 259 96 loadbang;
#X obj 56 335 outlet~;
#X obj 176 155 bark~ 4096 1024 0.5;
#X msg 259 119 minvel 50 \, debounce 200 \, thresh -1 20;
#X connect 0 0 6 0;
#X connect 0 0 7 0;
#X connect 5 0 8 0;
#X connect 7 0 4 0;
#X connect 7 0 1 0;
#X connect 8 0 7 0;
#X restore 791 345 pd onsets;
#X obj 791 454 s \$0-attack-time;
#X obj 213 245 pack f \$0;
#X obj 719 344 *~ 0.85;
#X obj 457 484 s \$0-scrub-bar-init;
#X obj 457 428 - 5;
#X msg 457 456 range 0 \$1;
#X msg 213 273 \; \$2-sampledSynth resize \$1;
#X obj 50 576 prepend set;
#X obj 50 603 outlet;
#X obj 666 582 s \$0-basenote;
#X connect 0 0 7 0;
#X connect 0 0 10 0;
#X connect 0 0 26 0;
#X connect 0 0 29 0;
#X connect 0 1 5 0;
#X connect 1 0 3 0;
#X connect 2 0 6 0;
#X connect 3 0 4 0;
#X connect 3 0 17 0;
#X connect 3 0 32 0;
#X connect 4 0 0 0;
#X connect 5 0 2 0;
#X connect 8 0 1 0;
#X connect 9 0 10 1;
#X connect 10 0 14 0;
#X connect 11 0 9 0;
#X connect 12 0 9 0;
#X connect 14 0 13 0;
#X connect 15 0 3 0;
#X connect 16 0 24 0;
#X connect 16 0 27 0;
#X connect 17 0 21 0;
#X connect 18 0 19 0;
#X connect 18 1 16 0;
#X connect 19 0 16 0;
#X connect 21 0 18 0;
#X connect 23 0 22 0;
#X connect 23 0 25 0;
#X connect 24 0 23 0;
#X connect 24 1 23 0;
#X connect 26 0 31 0;
#X connect 27 0 20 0;
#X connect 27 0 20 1;
#X connect 29 0 30 0;
#X connect 30 0 28 0;
#X connect 32 0 33 0;
#X restore 464 71 pd setSource;
#N canvas 54 238 675 615 audiocapture 0;
#X obj 267 13 inlet;
#X msg 252 219 bang;
#X obj 191 401 line~;
#X obj 161 432 *~;
#X obj 453 455 f \$0;
#X obj 287 569 outlet;
#X msg 252 521 1;
#X msg 323 521 0;
#X obj 453 421 bng 15 250 50 0 empty empty empty 17 7 0 10 -262144
-1 -1;
#X obj 323 276 del 200;
#X obj 369 245 r \$0-sampleSourceMilli;
#X obj 435 291 nbx 6 18 0 1e+37 0 0 empty empty empty 0 -8 0 10 -262144
-1 -1 143.042 256;
#X obj 461 569 outlet done;
#X obj 161 471 tabwrite~ \$0-sampledSynth;
#X msg 453 482 \; \$1-sampledSynth normalize \;;
#X obj 25 360 dac~;
#X obj 139 27 adc~;
#X obj 38 311 *~;
#X obj 90 217 vsl 30 64 0.02 2 1 0 empty empty empty 0 -9 0 10 -262144
-1 -1 0 1;
#X msg 436 349 1;
#X obj 323 311 t b b b;
#X msg 346 339 0 2;
#X obj 252 180 spigot;
#X msg 267 138 1;
#X msg 314 138 0;
#X obj 436 375 ctlout 120, f 12;
#X obj 164 117 sel 1;
#X obj 138 364 hip~ 5;
#X msg 237 332 0 \, 1 1;
#X obj 164 90 > 50;
#X obj 164 60 env~ 200;
#X connect 0 0 23 0;
#X connect 1 0 28 0;
#X connect 1 0 6 0;
#X connect 1 0 9 0;
#X connect 1 0 13 0;
#X connect 2 0 3 1;
#X connect 3 0 13 0;
#X connect 4 0 14 0;
#X connect 6 0 5 0;
#X connect 7 0 5 0;
#X connect 8 0 4 0;
#X connect 9 0 20 0;
#X connect 10 0 9 1;
#X connect 10 0 11 0;
#X connect 16 0 17 0;
#X connect 16 0 27 0;
#X connect 16 0 30 0;
#X connect 17 0 15 0;
#X connect 17 0 15 1;
#X connect 18 0 17 1;
#X connect 19 0 25 0;
#X connect 20 0 4 0;
#X connect 20 0 7 0;
#X connect 20 0 12 0;
#X connect 20 1 21 0;
#X connect 20 2 19 0;
#X connect 21 0 2 0;
#X connect 22 0 1 0;
#X connect 22 0 24 0;
#X connect 23 0 22 1;
#X connect 24 0 22 1;
#X connect 26 0 22 0;
#X connect 27 0 3 0;
#X connect 28 0 2 0;
#X connect 29 0 26 0;
#X connect 30 0 29 0;
#X restore 658 660 pd audiocapture;
#X obj 658 629 bng 25 250 50 0 empty \$0-start-rec-trig start_record
28 13 0 10 -261234 -1 -1;
#X obj 658 685 tgl 15 0 empty empty rec_on 17 7 0 10 -261234 -258113
-1 0 1;
#X obj 1049 351 nbx 3 32 0 1e+37 0 0 empty empty points -60 17 0 14
-262144 -162280 -13381 35 256;
#X msg 562 52 /Volumes/FAT/samples/tubeslap2.wav;
#N canvas 535 23 526 976 preenRandomizer 0;
#X obj 242 104 uzi 6 1, f 11;
#X obj 242 51 inlet;
#X obj 242 78 t b;
#X obj 316 130 t b b f;
#X obj 254 646 random 1600;
#X obj 51 451 random 100;
#X obj 271 462 random 1600;
#X obj 189 557 random 1600;
#X obj 233 615 random 100;
#X obj 210 586 random 1600;
#X obj 287 673 random 100;
#X obj 335 730 random 7;
#X obj 268 296 random 1600;
#X obj 88 486 expr 100 - $f1;
#X obj 296 525 +;
#X obj 131 816 pack 0 0 0 0 0 0 0 0 0 0 0 0 0 0;
#X obj 197 200 t b b b;
#X obj 93 261 outlet;
#X obj 93 208 t b;
#X obj 242 915 s \$0-savePreenPatch;
#X obj 86 915 s \$0-playPreenPatch;
#X obj 131 880 t a a;
#X obj 131 852 zl group 84;
#X obj 342 206 r \$0-attack-time;
#X obj 342 268 min 1600;
#X obj 342 236 * 2;
#X obj 93 234 delay 10;
#X obj 315 770 + 790;
#X obj 314 702 random 20;
#X obj 314 344 r \$0-sampleSourceMilli;
#X obj 314 401 min 1600;
#X obj 296 557 expr $f2 - $f1;
#X obj 314 374 * 2;
#X connect 0 1 18 0;
#X connect 0 2 3 0;
#X connect 1 0 2 0;
#X connect 2 0 0 0;
#X connect 3 0 15 0;
#X connect 3 1 16 0;
#X connect 3 2 15 13;
#X connect 4 0 15 9;
#X connect 5 0 13 0;
#X connect 5 0 15 3;
#X connect 6 0 14 0;
#X connect 6 0 15 4;
#X connect 7 0 15 6;
#X connect 8 0 15 7;
#X connect 9 0 15 8;
#X connect 10 0 15 10;
#X connect 11 0 15 12;
#X connect 12 0 14 1;
#X connect 12 0 15 2;
#X connect 13 0 15 5;
#X connect 14 0 31 0;
#X connect 15 0 22 0;
#X connect 16 0 4 0;
#X connect 16 0 10 0;
#X connect 16 0 11 0;
#X connect 16 0 8 0;
#X connect 16 0 7 0;
#X connect 16 0 5 0;
#X connect 16 0 9 0;
#X connect 16 0 28 0;
#X connect 16 1 6 0;
#X connect 16 2 12 0;
#X connect 18 0 26 0;
#X connect 21 0 20 0;
#X connect 21 1 19 0;
#X connect 22 0 21 0;
#X connect 23 0 25 0;
#X connect 24 0 12 1;
#X connect 25 0 24 0;
#X connect 26 0 17 0;
#X connect 27 0 15 11;
#X connect 28 0 27 0;
#X connect 29 0 32 0;
#X connect 30 0 6 1;
#X connect 30 0 31 1;
#X connect 30 0 7 1;
#X connect 30 0 4 1;
#X connect 31 0 9 1;
#X connect 32 0 30 0;
#X restore 658 579 pd preenRandomizer;
#X obj 658 533 bng 40 250 50 0 empty \$0-generate-new generate_one
46 20 0 10 -203904 -1 -1;
#X obj 797 564 bng 40 250 50 0 empty \$0-retrig-note retrig_note 46
20 0 10 -261682 -86277 -1;
#X obj 48 162 prepend set, f 14;
#X msg 16 189 0.850139 0 0 10 81 178 19 92 73 7 33 30 796 6 1 0 0 0
2 272 98 254 55 9 154 34 808 0 2 0 0 12 9 161 91 54 9 74 110 76 807
0 3 0 0 15 27 2 73 62 43 28 63 14 799 4 4 0 0 25 35 20 65 110 18 157
275 17 797 4 5 0 0 10 36 83 64 239 22 119 280 8 794 5 6, f 156;
#X obj 145 577 nbx 3 22 1 1e+37 0 0 \$0-pop-size \$0-pop-size-init
population_size 0 -12 0 14 -4160 -262144 -128992 30 256;
#N canvas 297 303 379 454 scansample 0;
#X obj 142 275 s \$0-scrub-bar;
#X obj 20 10 inlet;
#N canvas 1074 258 304 333 waveform 0;
#X obj 46 51 inlet;
#X obj 46 82 t f f;
#X obj 91 131 + 1023;
#X obj 46 164 pack f f \$0;
#X obj 46 226 tabletool \$0-waveform;
#X msg 46 195 copy_range 0 \$3-sampleSource \$1 \$2;
#X connect 0 0 1 0;
#X connect 1 0 3 0;
#X connect 1 1 2 0;
#X connect 2 0 3 1;
#X connect 3 0 5 0;
#X connect 5 0 4 0;
#X restore 202 381 pd waveform;
#X obj 202 349 r \$0-scrub-bar;
#X obj 96 210 uzi 0 0;
#X obj 143 87 r \$0-sampleSourceLen;
#X obj 143 117 / 200;
#X obj 142 239 * 200;
#X floatatom 157 180 5 0 0 0 - - -;
#X obj 143 147 i;
#X connect 1 0 4 0;
#X connect 3 0 2 0;
#X connect 4 2 7 0;
#X connect 5 0 6 0;
#X connect 6 0 9 0;
#X connect 7 0 0 0;
#X connect 9 0 4 1;
#X connect 9 0 8 0;
#X restore 760 731 pd scansample;
#X obj 392 559 bng 25 250 50 0 empty empty read_best_result 28 13 0
10 -204786 -1 -1;
#X obj 148 711 hsl 64 19 0.1 0.9 0 0 \$0-mutation-rate \$0-mutation-rate-init
mutation_rate 70 9 0 10 -204800 -1 -1 3619 1;
#N canvas 0 23 842 753 init 0;
#X obj 149 25 loadbang;
#X obj 113 179 s \$0-mutation-rate-init;
#X obj 189 124 s \$0-pop-size-init;
#X msg 55 146 0;
#X obj 55 227 s \$0-cycle-count;
#X obj 195 347 declare -lib timbreID/timbreIDLib;
#X obj 65 315 bng 25 250 50 0 empty empty set_test 28 13 0 10 -262130
-1 -1;
#N canvas 0 23 450 300 setTestSample 0;
#X obj 40 124 soundfiler;
#X obj 39 86 openpanel;
#X obj 139 124 f \$0;
#X obj 106 86 pack s \$0;
#X obj 114 124 t b;
#X msg 40 105 read -resize \$1 \$2-sampleTest;
#X msg 169 124 \; \$1-sampleTest normalize \;;
#X obj 56 30 inlet;
#X connect 0 1 4 0;
#X connect 1 0 3 0;
#X connect 2 0 6 0;
#X connect 3 0 5 0;
#X connect 4 0 2 0;
#X connect 5 0 0 0;
#X connect 7 0 1 0;
#X restore 65 346 pd setTestSample;
#X obj 352 113 s \$0-algo-init;
#X msg 352 89 20;
#X msg 189 98 30;
#X msg 113 154 0.75;
#X connect 0 0 11 0;
#X connect 0 0 10 0;
#X connect 0 0 3 0;
#X connect 0 0 9 0;
#X connect 3 0 4 0;
#X connect 6 0 7 0;
#X connect 9 0 8 0;
#X connect 10 0 2 0;
#X connect 11 0 1 0;
#X restore 16 789 pd init;
#X obj 145 682 nbx 5 22 0 1e+37 0 0 empty \$0-cycle-count cycle_count
80 11 0 14 -262144 -128992 -128992 63 256;
#X obj 145 606 tgl 40 0 \$0-mutation-state empty mutation 44 20 0 14
-262130 -1 -1 1 1;
#X obj 605 564 bng 40 250 50 0 empty \$0-reanalyse empty 46 20 0 10
-261682 -86277 -1;
#X obj 1015 626 nbx 3 22 1 28 0 0 empty \$0-algo-init algo 0 -12 0
14 -4160 -262144 -128992 20 256;
#X obj 1015 655 ctlout 16;
#X obj 16 109 prepend;
#X msg 16 33 set \$1;
#X obj 16 58 t b a;
#X obj 16 83 list store;
#X obj 16 8 r \$0-score;
#X obj 16 136 t b a;
#N canvas 541 23 1174 908 collProcess 0;
#X obj 274 298 coll workingColl 1;
#C restore;
#X obj 17 166 prepend set;
#X obj 221 232 prepend 0;
#X obj 251 386 + 1;
#X obj 221 386 i;
#X obj 221 259 t b a;
#X obj 448 35 inlet getbest;
#X msg 500 197 renumber;
#X obj 221 539 sel 0;
#X obj 221 456 %;
#X obj 251 610 + 1;
#X obj 221 656 s \$0-cycle-count;
#X obj 221 610 f 0;
#X obj 446 67 t b b;
#X msg 574 199 sort 1 0;
#X obj 458 99 r \$0-pop-size;
#X obj 413 153 i;
#X msg 277 178 clear;
#X obj 445 126 - 1;
#X msg 495 282 0;
#X obj 221 488 t f f;
#X obj 506 130 r \$0-sort-patchlist;
#X obj 98 69 r \$0-scoredPreenPatch;
#X obj 573 740 zl slice 1;
#X obj 605 709 s \$0-scoredPreenPatchDisplay;
#X obj 573 677 t a a;
#X obj 672 807 s \$0-playPreenPatch;
#X obj 640 837 s \$0-retrig-note;
#X obj 640 774 t b a;
#X obj 516 839 s \$0-score-in;
#X obj 516 808 prepend set;
#X obj 820 118 r \$0-pop-size;
#X obj 820 145 change;
#X obj 306 602 s \$0-cycle-pos;
#X obj 17 139 r \$0-cycle-pos;
#X obj 326 507 <;
#X obj 326 535 sel 1;
#X obj 326 562 s \$0-sort-patchlist;
#X obj 771 415 f;
#X obj 820 381 * 0.5;
#X obj 357 227 s \$0-cycle-pos;
#X obj 325 202 t f f;
#X obj 820 331 f;
#X obj 279 126 t b b b;
#X obj 739 264 sel 0;
#X obj 771 369 t b;
#X obj 279 99 r \$0-pop-init;
#X obj 488 164 t b b b;
#X obj 391 197 s \$0-sort-done;
#X obj 669 29 inlet getone;
#X obj 931 293 s \$0-get-one;
#X msg 931 266 range 0 \$1;
#X connect 0 0 25 0;
#X connect 1 0 2 0;
#X connect 2 0 5 0;
#X connect 3 0 4 1;
#X connect 4 0 3 0;
#X connect 4 0 9 0;
#X connect 5 0 4 0;
#X connect 5 1 0 0;
#X connect 6 0 13 0;
#X connect 7 0 0 0;
#X connect 8 0 12 0;
#X connect 9 0 20 0;
#X connect 10 0 12 1;
#X connect 12 0 10 0;
#X connect 12 0 11 0;
#X connect 12 0 44 0;
#X connect 13 0 16 0;
#X connect 13 1 47 0;
#X connect 14 0 0 0;
#X connect 15 0 18 0;
#X connect 16 0 41 0;
#X connect 17 0 0 0;
#X connect 18 0 16 1;
#X connect 18 0 51 0;
#X connect 19 0 4 0;
#X connect 19 0 12 0;
#X connect 20 0 8 0;
#X connect 20 0 35 1;
#X connect 20 1 33 0;
#X connect 20 1 35 0;
#X connect 21 0 47 0;
#X connect 22 0 2 0;
#X connect 23 0 30 0;
#X connect 23 1 28 0;
#X connect 25 0 23 0;
#X connect 25 1 24 0;
#X connect 28 0 27 0;
#X connect 28 1 26 0;
#X connect 30 0 29 0;
#X connect 31 0 32 0;
#X connect 32 0 19 0;
#X connect 32 0 42 0;
#X connect 34 0 1 0;
#X connect 35 0 36 0;
#X connect 36 0 37 0;
#X connect 38 0 9 1;
#X connect 39 0 38 1;
#X connect 41 0 0 0;
#X connect 41 1 40 0;
#X connect 42 0 39 0;
#X connect 42 0 9 1;
#X connect 43 0 19 0;
#X connect 43 1 17 0;
#X connect 43 2 42 0;
#X connect 44 0 42 0;
#X connect 44 1 45 0;
#X connect 45 0 38 0;
#X connect 46 0 43 0;
#X connect 47 0 48 0;
#X connect 47 1 7 0;
#X connect 47 2 14 0;
#X connect 49 0 41 0;
#X connect 51 0 50 0;
#X restore 392 626 pd collProcess;
#X obj 82 58 r \$0-savePreenPatch, f 25;
#X obj 16 229 s \$0-scoredPreenPatch, f 25;
#X obj 67 136 r \$0-scoredPreenPatchDisplay;
#X obj 785 623 bng 25 250 50 0 empty empty patch_update 28 13 0 10
-204786 -1 -1;
#X obj 145 653 nbx 3 22 0 1e+37 0 0 empty \$0-cycle-pos cycle_pos 56
11 0 14 -262144 -128992 -128992 0 256;
#X obj 146 738 bng 15 250 50 0 empty \$0-sort-patchlist sorted 17 7
0 10 -204786 -1 -1;
#N canvas 0 23 935 717 mutaloop 0;
#X obj 203 108 r \$0-mutation-state;
#X obj 136 178 spigot;
#X obj 112 504 s \$0-generate-new;
#X obj 230 173 sel 1;
#X obj 111 64 r \$0-score;
#X obj 119 96 t b;
#X obj 374 169 r \$0-cycle-count;
#X obj 112 449 spigot;
#X obj 179 373 == 0;
#X obj 384 278 > 0;
#X obj 365 379 spigot;
#X obj 364 417 t b b;
#X obj 316 507 s \$0-reanalyse;
#X obj 472 507 s \$0-get-one;
#X obj 491 417 r \$0-cycle-pos;
#X obj 472 462 f;
#X obj 316 462 delay 50;
#X obj 480 345 s \$0-cycle-pos;
#X obj 480 286 sel 1;
#X obj 384 234 t f f;
#X msg 480 314 0;
#X connect 0 0 1 1;
#X connect 0 0 3 0;
#X connect 1 0 7 0;
#X connect 1 0 10 0;
#X connect 3 0 7 0;
#X connect 4 0 5 0;
#X connect 5 0 1 0;
#X connect 6 0 8 0;
#X connect 6 0 19 0;
#X connect 7 0 2 0;
#X connect 8 0 7 1;
#X connect 9 0 10 1;
#X connect 10 0 11 0;
#X connect 11 0 16 0;
#X connect 11 1 15 0;
#X connect 14 0 15 1;
#X connect 15 0 13 0;
#X connect 16 0 12 0;
#X connect 18 0 20 0;
#X connect 19 0 9 0;
#X connect 19 1 18 0;
#X connect 20 0 17 0;
#X restore 658 705 pd mutaloop;
#X obj 203 577 bng 22 250 50 0 \$0-pop-init empty reset 25 11 0 10
-203904 -262130 -1;
#N canvas 72 142 507 783 mutate 0;
#X obj 233 403 coll workingColl 1;
#C restore;
#X obj 59 44 r \$0-sort-done;
#X obj 251 89 r \$0-pop-size;
#X obj 91 405 coll workingColl 1;
#C restore;
#X obj 132 586 list-inter;
#X obj 187 452 r \$0-mutation-rate;
#X obj 110 555 f;
#X obj 261 654 prepend 0;
#X obj 261 687 coll workingColl 1;
#C restore;
#X obj 119 289 t f f f;
#X obj 261 621 prepend set;
#X obj 59 187 uzi 0 0, f 9;
#X obj 68 223 t b;
#X obj 68 250 s \$0-mutated-patchlist;
#X obj 233 364 expr $f2 - $f1;
#X obj 233 337 %;
#X obj 183 135 * 0.75;
#X obj 251 291 * 0.25;
#X obj 71 433 t b a b;
#X obj 102 461 random 100;
#X obj 162 522 *;
#X obj 19 489 expr 1 + ($f1 - 50) / 100;
#X connect 0 0 4 2;
#X connect 1 0 11 0;
#X connect 2 0 14 1;
#X connect 2 0 16 0;
#X connect 2 0 17 0;
#X connect 3 0 18 0;
#X connect 4 0 7 0;
#X connect 5 0 20 1;
#X connect 6 0 4 0;
#X connect 7 0 8 0;
#X connect 9 0 3 0;
#X connect 9 1 15 0;
#X connect 9 2 10 0;
#X connect 10 0 7 0;
#X connect 11 1 12 0;
#X connect 11 2 9 0;
#X connect 12 0 13 0;
#X connect 14 0 0 0;
#X connect 15 0 14 0;
#X connect 16 0 11 1;
#X connect 17 0 15 1;
#X connect 18 0 6 0;
#X connect 18 1 4 1;
#X connect 18 2 19 0;
#X connect 19 0 21 0;
#X connect 20 0 6 1;
#X connect 21 0 20 0;
#X restore 392 649 pd mutate;
#X obj 209 738 bng 15 250 50 0 empty \$0-mutated-patchlist mutated
17 7 0 10 -261682 -1 -1;
#X obj 425 604 nbx 3 22 0 29 0 0 empty \$0-get-one get_one 52 11 0
12 -4160 -262144 -128992 14 256;
#N canvas 0 22 450 278 (subpatch) 0;
#X array \$0-score-history 512 float 4;
#X coords 0 8 511 0 200 80 1 0 0;
#X restore 929 459 graph;
#X msg 464 100 /Volumes/FAT/samples/AmigaD7/Converted/Acid/Bip/Bip.q5.wav
1003, f 66;
#X msg 562 33 /Volumes/FAT/samples/AmigaD7/Converted/Acid/Bip/Bip.q5.wav
;
#X msg 562 14 /Volumes/FAT/samples/AmigaD7/Converted/Drums/R8.BDDry2.wav
, f 59;
#X connect 0 0 15 0;
#X connect 0 1 44 0;
#X connect 2 0 13 0;
#X connect 9 0 25 0;
#X connect 10 0 12 0;
#X connect 11 0 8 0;
#X connect 11 1 17 0;
#X connect 12 0 11 0;
#X connect 13 0 53 0;
#X connect 14 0 16 0;
#X connect 14 1 9 0;
#X connect 15 0 14 0;
#X connect 18 0 13 1;
#X connect 19 0 0 0;
#X connect 20 0 19 0;
#X connect 21 0 0 1;
#X connect 22 0 23 0;
#X connect 23 0 42 0;
#X connect 26 0 40 0;
#X connect 31 0 0 0;
#X connect 32 0 33 0;
#X connect 34 0 39 0;
#X connect 35 0 36 0;
#X connect 36 0 37 0;
#X connect 36 1 34 0;
#X connect 37 0 34 0;
#X connect 38 0 35 0;
#X connect 39 0 23 0;
#X connect 39 1 22 0;
#X connect 41 0 37 1;
#X connect 43 0 22 0;
#X connect 51 0 40 1;
#X connect 54 0 13 1;
#X connect 55 0 13 1;
